<mxfile host="Electron" agent="Mozilla/5.0 (X11; Linux x86_64) AppleWebKit/537.36 (KHTML, like Gecko) draw.io/28.2.5 Chrome/138.0.7204.251 Electron/37.6.1 Safari/537.36" version="28.2.5">
  <diagram name="Page-1" id="5N1QG-RuHGxLHV1p5bVp">
    <mxGraphModel dx="951" dy="671" grid="1" gridSize="10" guides="1" tooltips="1" connect="1" arrows="1" fold="1" page="1" pageScale="1" pageWidth="850" pageHeight="1100" math="0" shadow="0">
      <root>
        <mxCell id="0" />
        <mxCell id="1" parent="0" />
        <mxCell id="CSXKb2e_C_K2BSgl5yH9-51" style="edgeStyle=orthogonalEdgeStyle;rounded=0;orthogonalLoop=1;jettySize=auto;html=1;exitX=0.75;exitY=0;exitDx=0;exitDy=0;entryX=0.75;entryY=0;entryDx=0;entryDy=0;strokeWidth=1;strokeColor=#E67E80;fontFamily=LXGW WenKai Mono;fontSize=17;fontColor=#5C6A72;align=center;verticalAlign=middle;endArrow=blockThin;endFill=1;" parent="1" source="CSXKb2e_C_K2BSgl5yH9-2" target="CSXKb2e_C_K2BSgl5yH9-11" edge="1">
          <mxGeometry relative="1" as="geometry">
            <Array as="points">
              <mxPoint x="985" y="690" />
              <mxPoint x="1785" y="690" />
            </Array>
          </mxGeometry>
        </mxCell>
        <mxCell id="ytIPeGB8zy7AAXnz2NpN-81" style="edgeStyle=orthogonalEdgeStyle;rounded=0;orthogonalLoop=1;jettySize=auto;html=1;entryX=0;entryY=0.5;entryDx=0;entryDy=0;strokeWidth=1;strokeColor=#E67E80;fontFamily=LXGW WenKai Mono Medium;fontSize=12;fontColor=#5C6A72;align=center;verticalAlign=middle;endArrow=blockThin;endFill=1;" parent="1" source="ytIPeGB8zy7AAXnz2NpN-84" target="ytIPeGB8zy7AAXnz2NpN-89" edge="1">
          <mxGeometry relative="1" as="geometry" />
        </mxCell>
        <mxCell id="ytIPeGB8zy7AAXnz2NpN-84" value="&lt;font&gt;./configure&lt;/font&gt;" style="rounded=0;whiteSpace=wrap;html=1;strokeWidth=1;fillColor=#E67E80;strokeColor=#E67E80;perimeterSpacing=0;glass=0;shadow=0;fillStyle=solid;gradientColor=none;fillOpacity=50;fontFamily=LXGW WenKai Mono Medium;fontSize=12;fontColor=#5C6A72;align=center;verticalAlign=middle;" parent="1" vertex="1">
          <mxGeometry x="120" y="699.97" width="100" height="20" as="geometry" />
        </mxCell>
        <mxCell id="ytIPeGB8zy7AAXnz2NpN-85" style="edgeStyle=orthogonalEdgeStyle;rounded=0;orthogonalLoop=1;jettySize=auto;html=1;exitX=1;exitY=0.5;exitDx=0;exitDy=0;entryX=0.25;entryY=0;entryDx=0;entryDy=0;strokeWidth=1;strokeColor=#E67E80;fontFamily=LXGW WenKai Mono Medium;fontSize=12;fontColor=#5C6A72;align=center;verticalAlign=middle;endArrow=blockThin;endFill=1;" parent="1" source="ytIPeGB8zy7AAXnz2NpN-89" target="ytIPeGB8zy7AAXnz2NpN-96" edge="1">
          <mxGeometry relative="1" as="geometry">
            <Array as="points">
              <mxPoint x="705" y="710" />
            </Array>
          </mxGeometry>
        </mxCell>
        <mxCell id="ytIPeGB8zy7AAXnz2NpN-86" style="edgeStyle=orthogonalEdgeStyle;rounded=0;orthogonalLoop=1;jettySize=auto;html=1;entryX=0.5;entryY=0;entryDx=0;entryDy=0;strokeWidth=1;strokeColor=#E67E80;fontFamily=LXGW WenKai Mono Medium;fontSize=12;fontColor=#5C6A72;align=center;verticalAlign=middle;endArrow=blockThin;endFill=1;" parent="1" source="ytIPeGB8zy7AAXnz2NpN-89" target="ytIPeGB8zy7AAXnz2NpN-133" edge="1">
          <mxGeometry relative="1" as="geometry">
            <mxPoint x="450" y="809.97" as="targetPoint" />
          </mxGeometry>
        </mxCell>
        <mxCell id="ytIPeGB8zy7AAXnz2NpN-87" style="edgeStyle=orthogonalEdgeStyle;rounded=0;orthogonalLoop=1;jettySize=auto;html=1;exitX=0.25;exitY=1;exitDx=0;exitDy=0;entryX=0.5;entryY=0;entryDx=0;entryDy=0;strokeWidth=1;strokeColor=#E67E80;fontFamily=LXGW WenKai Mono Medium;fontSize=12;fontColor=#5C6A72;align=center;verticalAlign=middle;endArrow=blockThin;endFill=1;" parent="1" source="ytIPeGB8zy7AAXnz2NpN-89" target="ytIPeGB8zy7AAXnz2NpN-131" edge="1">
          <mxGeometry relative="1" as="geometry">
            <Array as="points">
              <mxPoint x="425" y="740" />
              <mxPoint x="310" y="740" />
            </Array>
            <mxPoint x="290" y="809.97" as="targetPoint" />
          </mxGeometry>
        </mxCell>
        <mxCell id="ytIPeGB8zy7AAXnz2NpN-88" style="edgeStyle=orthogonalEdgeStyle;rounded=0;orthogonalLoop=1;jettySize=auto;html=1;exitX=0.75;exitY=1;exitDx=0;exitDy=0;entryX=0.5;entryY=0;entryDx=0;entryDy=0;strokeWidth=1;strokeColor=#E67E80;fontFamily=LXGW WenKai Mono Medium;fontSize=12;fontColor=#5C6A72;align=center;verticalAlign=middle;endArrow=blockThin;endFill=1;" parent="1" source="ytIPeGB8zy7AAXnz2NpN-89" target="ytIPeGB8zy7AAXnz2NpN-132" edge="1">
          <mxGeometry relative="1" as="geometry">
            <Array as="points">
              <mxPoint x="475" y="740" />
              <mxPoint x="590" y="740" />
            </Array>
            <mxPoint x="610" y="809.97" as="targetPoint" />
          </mxGeometry>
        </mxCell>
        <mxCell id="ytIPeGB8zy7AAXnz2NpN-89" value="&lt;font&gt;config.status&lt;/font&gt;" style="rounded=0;whiteSpace=wrap;html=1;strokeWidth=1;fillColor=#E67E80;strokeColor=#E67E80;fillOpacity=50;fontFamily=LXGW WenKai Mono Medium;fontSize=12;fontColor=#5C6A72;align=center;verticalAlign=middle;" parent="1" vertex="1">
          <mxGeometry x="400" y="699.97" width="100" height="20" as="geometry" />
        </mxCell>
        <mxCell id="ytIPeGB8zy7AAXnz2NpN-90" style="edgeStyle=orthogonalEdgeStyle;rounded=0;orthogonalLoop=1;jettySize=auto;html=1;entryX=0.25;entryY=0;entryDx=0;entryDy=0;strokeWidth=1;strokeColor=#5C6A72;fontFamily=LXGW WenKai Mono Medium;fontSize=12;exitX=0.5;exitY=1;exitDx=0;exitDy=0;fontColor=#5C6A72;align=center;verticalAlign=middle;endArrow=blockThin;endFill=1;" parent="1" source="ytIPeGB8zy7AAXnz2NpN-128" target="ytIPeGB8zy7AAXnz2NpN-89" edge="1">
          <mxGeometry relative="1" as="geometry">
            <Array as="points">
              <mxPoint x="310" y="660" />
              <mxPoint x="425" y="660" />
            </Array>
            <mxPoint x="290" y="760" as="sourcePoint" />
          </mxGeometry>
        </mxCell>
        <mxCell id="ytIPeGB8zy7AAXnz2NpN-92" style="edgeStyle=orthogonalEdgeStyle;rounded=0;orthogonalLoop=1;jettySize=auto;html=1;strokeWidth=1;strokeColor=#5C6A72;fontFamily=LXGW WenKai Mono Medium;fontSize=12;exitX=0.5;exitY=1;exitDx=0;exitDy=0;entryX=0.5;entryY=0;entryDx=0;entryDy=0;fontColor=#5C6A72;align=center;verticalAlign=middle;endArrow=blockThin;endFill=1;" parent="1" source="ytIPeGB8zy7AAXnz2NpN-130" target="ytIPeGB8zy7AAXnz2NpN-89" edge="1">
          <mxGeometry relative="1" as="geometry">
            <mxPoint x="450" y="880" as="targetPoint" />
            <mxPoint x="450" y="760" as="sourcePoint" />
          </mxGeometry>
        </mxCell>
        <mxCell id="ytIPeGB8zy7AAXnz2NpN-94" style="edgeStyle=orthogonalEdgeStyle;rounded=0;orthogonalLoop=1;jettySize=auto;html=1;entryX=0.75;entryY=0;entryDx=0;entryDy=0;strokeWidth=1;strokeColor=#5C6A72;fontFamily=LXGW WenKai Mono Medium;fontSize=12;exitX=0.5;exitY=1;exitDx=0;exitDy=0;fontColor=#5C6A72;align=center;verticalAlign=middle;endArrow=blockThin;endFill=1;" parent="1" source="ytIPeGB8zy7AAXnz2NpN-129" target="ytIPeGB8zy7AAXnz2NpN-89" edge="1">
          <mxGeometry relative="1" as="geometry">
            <Array as="points">
              <mxPoint x="590" y="660" />
              <mxPoint x="475" y="660" />
            </Array>
            <mxPoint x="610" y="760" as="sourcePoint" />
          </mxGeometry>
        </mxCell>
        <mxCell id="ytIPeGB8zy7AAXnz2NpN-96" value="&lt;font&gt;config.log&lt;/font&gt;" style="rounded=0;whiteSpace=wrap;html=1;strokeWidth=1;fillColor=#7FBBB3;strokeColor=#7FBBB3;fontColor=#5C6A72;fillOpacity=50;fontFamily=LXGW WenKai Mono Medium;fontSize=12;align=center;verticalAlign=middle;" parent="1" vertex="1">
          <mxGeometry x="680" y="760" width="100" height="20" as="geometry" />
        </mxCell>
        <mxCell id="ytIPeGB8zy7AAXnz2NpN-100" style="edgeStyle=orthogonalEdgeStyle;rounded=0;orthogonalLoop=1;jettySize=auto;html=1;strokeWidth=1;strokeColor=#7FBBB3;fontFamily=LXGW WenKai Mono Medium;fontSize=12;fontColor=#5C6A72;align=center;verticalAlign=middle;endArrow=blockThin;endFill=1;entryX=0.75;entryY=1;entryDx=0;entryDy=0;exitX=0.75;exitY=0;exitDx=0;exitDy=0;" parent="1" source="ytIPeGB8zy7AAXnz2NpN-101" target="ytIPeGB8zy7AAXnz2NpN-84" edge="1">
          <mxGeometry relative="1" as="geometry">
            <Array as="points">
              <mxPoint x="195" y="740" />
              <mxPoint x="195" y="740" />
            </Array>
            <mxPoint x="269.97" y="790" as="sourcePoint" />
            <mxPoint x="259.97" y="890" as="targetPoint" />
          </mxGeometry>
        </mxCell>
        <mxCell id="ytIPeGB8zy7AAXnz2NpN-101" value="&lt;font&gt;config.cache&lt;/font&gt;" style="rounded=0;whiteSpace=wrap;html=1;strokeWidth=1;fillColor=#7FBBB3;strokeColor=#7FBBB3;fontColor=#5C6A72;fillOpacity=50;fontFamily=LXGW WenKai Mono Medium;fontSize=12;align=center;verticalAlign=middle;" parent="1" vertex="1">
          <mxGeometry x="120" y="760" width="100" height="20" as="geometry" />
        </mxCell>
        <mxCell id="ytIPeGB8zy7AAXnz2NpN-102" style="edgeStyle=orthogonalEdgeStyle;rounded=0;orthogonalLoop=1;jettySize=auto;html=1;entryX=1;entryY=0.5;entryDx=0;entryDy=0;strokeWidth=1;strokeColor=#5C6A72;fontFamily=LXGW WenKai Mono Medium;fontSize=12;fontColor=#5C6A72;align=center;verticalAlign=middle;endArrow=blockThin;endFill=1;exitX=0;exitY=0.5;exitDx=0;exitDy=0;" parent="1" source="ytIPeGB8zy7AAXnz2NpN-104" target="ytIPeGB8zy7AAXnz2NpN-111" edge="1">
          <mxGeometry relative="1" as="geometry" />
        </mxCell>
        <mxCell id="ytIPeGB8zy7AAXnz2NpN-103" style="edgeStyle=orthogonalEdgeStyle;rounded=0;orthogonalLoop=1;jettySize=auto;html=1;entryX=0.5;entryY=0;entryDx=0;entryDy=0;strokeWidth=1;strokeColor=#5C6A72;fontFamily=LXGW WenKai Mono Medium;fontSize=12;fontColor=#5C6A72;align=center;verticalAlign=middle;endArrow=blockThin;endFill=1;" parent="1" source="ytIPeGB8zy7AAXnz2NpN-104" target="ytIPeGB8zy7AAXnz2NpN-115" edge="1">
          <mxGeometry relative="1" as="geometry" />
        </mxCell>
        <mxCell id="ytIPeGB8zy7AAXnz2NpN-104" value="&lt;font&gt;configure.ac&lt;/font&gt;" style="rounded=0;whiteSpace=wrap;html=1;strokeWidth=1;fillColor=none;strokeColor=#5C6A72;fontColor=#5C6A72;fillOpacity=50;fontFamily=LXGW WenKai Mono Medium;fontSize=12;align=center;verticalAlign=middle;" parent="1" vertex="1">
          <mxGeometry x="260" y="440" width="100" height="20" as="geometry" />
        </mxCell>
        <mxCell id="ytIPeGB8zy7AAXnz2NpN-105" style="edgeStyle=orthogonalEdgeStyle;rounded=0;orthogonalLoop=1;jettySize=auto;html=1;entryX=0.5;entryY=0;entryDx=0;entryDy=0;strokeWidth=1;strokeColor=#5C6A72;fontFamily=LXGW WenKai Mono Medium;fontSize=12;fontColor=#5C6A72;align=center;verticalAlign=middle;endArrow=blockThin;endFill=1;" parent="1" source="ytIPeGB8zy7AAXnz2NpN-106" target="ytIPeGB8zy7AAXnz2NpN-123" edge="1">
          <mxGeometry relative="1" as="geometry" />
        </mxCell>
        <mxCell id="ytIPeGB8zy7AAXnz2NpN-106" value="&lt;font&gt;Makefile.am&lt;/font&gt;" style="rounded=0;whiteSpace=wrap;html=1;strokeWidth=1;fillColor=none;strokeColor=#5C6A72;fontColor=#5C6A72;fillOpacity=50;fontFamily=LXGW WenKai Mono Medium;fontSize=12;align=center;verticalAlign=middle;" parent="1" vertex="1">
          <mxGeometry x="400" y="440" width="100" height="20" as="geometry" />
        </mxCell>
        <mxCell id="ytIPeGB8zy7AAXnz2NpN-107" style="edgeStyle=orthogonalEdgeStyle;rounded=0;orthogonalLoop=1;jettySize=auto;html=1;entryX=0.75;entryY=0;entryDx=0;entryDy=0;strokeWidth=1;strokeColor=#5C6A72;fontFamily=LXGW WenKai Mono Medium;fontSize=12;fontColor=#5C6A72;align=center;verticalAlign=middle;endArrow=blockThin;endFill=1;" parent="1" source="ytIPeGB8zy7AAXnz2NpN-108" target="ytIPeGB8zy7AAXnz2NpN-123" edge="1">
          <mxGeometry relative="1" as="geometry">
            <Array as="points">
              <mxPoint x="590" y="540" />
              <mxPoint x="475" y="540" />
            </Array>
          </mxGeometry>
        </mxCell>
        <mxCell id="ytIPeGB8zy7AAXnz2NpN-108" value="&lt;font&gt;src/Makefile.am&lt;/font&gt;" style="rounded=0;whiteSpace=wrap;html=1;strokeWidth=1;fillColor=none;strokeColor=#5C6A72;fontColor=#5C6A72;fillOpacity=50;fontFamily=LXGW WenKai Mono Medium;fontSize=12;align=center;verticalAlign=middle;" parent="1" vertex="1">
          <mxGeometry x="540" y="440" width="100" height="20" as="geometry" />
        </mxCell>
        <mxCell id="ytIPeGB8zy7AAXnz2NpN-110" style="edgeStyle=orthogonalEdgeStyle;rounded=0;orthogonalLoop=1;jettySize=auto;html=1;entryX=0.5;entryY=0;entryDx=0;entryDy=0;strokeWidth=1;strokeColor=#E67E80;fontFamily=LXGW WenKai Mono Medium;fontSize=12;fontColor=#5C6A72;align=center;verticalAlign=middle;endArrow=blockThin;endFill=1;" parent="1" source="ytIPeGB8zy7AAXnz2NpN-111" target="ytIPeGB8zy7AAXnz2NpN-117" edge="1">
          <mxGeometry relative="1" as="geometry" />
        </mxCell>
        <mxCell id="ytIPeGB8zy7AAXnz2NpN-111" value="&lt;font&gt;aclocal&lt;/font&gt;" style="rounded=0;whiteSpace=wrap;html=1;strokeWidth=1;fillColor=#E67E80;strokeColor=#E67E80;perimeterSpacing=0;glass=0;shadow=0;fillStyle=solid;gradientColor=none;fillOpacity=50;fontFamily=LXGW WenKai Mono Medium;fontSize=12;fontColor=#5C6A72;align=center;verticalAlign=middle;" parent="1" vertex="1">
          <mxGeometry x="120" y="440" width="100" height="20" as="geometry" />
        </mxCell>
        <mxCell id="ytIPeGB8zy7AAXnz2NpN-113" value="&lt;font&gt;autoconf&lt;/font&gt;" style="rounded=0;whiteSpace=wrap;html=1;strokeWidth=1;fillColor=#E67E80;strokeColor=#E67E80;perimeterSpacing=0;glass=0;shadow=0;fillStyle=solid;gradientColor=none;fillOpacity=50;fontFamily=LXGW WenKai Mono Medium;fontSize=12;fontColor=#5C6A72;align=center;verticalAlign=middle;" parent="1" vertex="1">
          <mxGeometry x="120" y="560" width="100" height="20" as="geometry" />
        </mxCell>
        <mxCell id="ytIPeGB8zy7AAXnz2NpN-114" style="edgeStyle=orthogonalEdgeStyle;rounded=0;orthogonalLoop=1;jettySize=auto;html=1;entryX=0.5;entryY=0;entryDx=0;entryDy=0;strokeWidth=1;strokeColor=#E67E80;fontFamily=LXGW WenKai Mono Medium;fontSize=12;fontColor=#5C6A72;align=center;verticalAlign=middle;endArrow=blockThin;endFill=1;" parent="1" source="ytIPeGB8zy7AAXnz2NpN-115" target="ytIPeGB8zy7AAXnz2NpN-128" edge="1">
          <mxGeometry relative="1" as="geometry">
            <mxPoint x="310" y="720" as="targetPoint" />
          </mxGeometry>
        </mxCell>
        <mxCell id="ytIPeGB8zy7AAXnz2NpN-115" value="&lt;font&gt;autoheader&lt;/font&gt;" style="rounded=0;whiteSpace=wrap;html=1;strokeWidth=1;fillColor=#E67E80;strokeColor=#E67E80;perimeterSpacing=0;glass=0;shadow=0;fillStyle=solid;gradientColor=none;fillOpacity=50;fontFamily=LXGW WenKai Mono Medium;fontSize=12;fontColor=#5C6A72;align=center;verticalAlign=middle;" parent="1" vertex="1">
          <mxGeometry x="260" y="560" width="100" height="20" as="geometry" />
        </mxCell>
        <mxCell id="ytIPeGB8zy7AAXnz2NpN-117" value="&lt;font&gt;aclocal.m4&lt;/font&gt;" style="rounded=0;whiteSpace=wrap;html=1;strokeWidth=1;fillColor=#7FBBB3;strokeColor=#7FBBB3;fontColor=#5C6A72;fillOpacity=50;fontFamily=LXGW WenKai Mono Medium;fontSize=12;align=center;verticalAlign=middle;" parent="1" vertex="1">
          <mxGeometry x="120" y="500" width="100" height="20" as="geometry" />
        </mxCell>
        <mxCell id="ytIPeGB8zy7AAXnz2NpN-121" style="edgeStyle=orthogonalEdgeStyle;rounded=0;orthogonalLoop=1;jettySize=auto;html=1;entryX=0.5;entryY=0;entryDx=0;entryDy=0;strokeWidth=1;strokeColor=#E67E80;fontFamily=LXGW WenKai Mono Medium;fontSize=12;fontColor=#5C6A72;align=center;verticalAlign=middle;endArrow=blockThin;endFill=1;" parent="1" source="ytIPeGB8zy7AAXnz2NpN-123" target="ytIPeGB8zy7AAXnz2NpN-130" edge="1">
          <mxGeometry relative="1" as="geometry">
            <mxPoint x="450" y="720" as="targetPoint" />
          </mxGeometry>
        </mxCell>
        <mxCell id="ytIPeGB8zy7AAXnz2NpN-122" style="edgeStyle=orthogonalEdgeStyle;rounded=0;orthogonalLoop=1;jettySize=auto;html=1;entryX=0.5;entryY=0;entryDx=0;entryDy=0;strokeWidth=1;strokeColor=#E67E80;exitX=0.75;exitY=1;exitDx=0;exitDy=0;fontFamily=LXGW WenKai Mono Medium;fontSize=12;fontColor=#5C6A72;align=center;verticalAlign=middle;endArrow=blockThin;endFill=1;" parent="1" source="ytIPeGB8zy7AAXnz2NpN-123" target="ytIPeGB8zy7AAXnz2NpN-129" edge="1">
          <mxGeometry relative="1" as="geometry">
            <Array as="points">
              <mxPoint x="475" y="600" />
              <mxPoint x="590" y="600" />
            </Array>
            <mxPoint x="610" y="720" as="targetPoint" />
          </mxGeometry>
        </mxCell>
        <mxCell id="ytIPeGB8zy7AAXnz2NpN-123" value="&lt;font&gt;automake&lt;/font&gt;" style="rounded=0;whiteSpace=wrap;html=1;strokeWidth=1;fillColor=#E67E80;strokeColor=#E67E80;perimeterSpacing=0;glass=0;shadow=0;fillStyle=solid;gradientColor=none;fillOpacity=50;fontFamily=LXGW WenKai Mono Medium;fontSize=12;fontColor=#5C6A72;align=center;verticalAlign=middle;" parent="1" vertex="1">
          <mxGeometry x="400" y="560" width="100" height="20" as="geometry" />
        </mxCell>
        <mxCell id="ytIPeGB8zy7AAXnz2NpN-126" value="" style="endArrow=blockThin;html=1;rounded=0;entryX=0.75;entryY=0;entryDx=0;entryDy=0;strokeWidth=1;strokeColor=#5C6A72;exitX=0.25;exitY=1;exitDx=0;exitDy=0;fontFamily=LXGW WenKai Mono Medium;fontSize=12;fontColor=#5C6A72;align=center;verticalAlign=middle;endFill=1;" parent="1" source="ytIPeGB8zy7AAXnz2NpN-104" target="ytIPeGB8zy7AAXnz2NpN-113" edge="1">
          <mxGeometry width="50" height="50" relative="1" as="geometry">
            <mxPoint x="290" y="600" as="sourcePoint" />
            <mxPoint x="130" y="730" as="targetPoint" />
            <Array as="points">
              <mxPoint x="285" y="540" />
              <mxPoint x="195" y="540" />
            </Array>
          </mxGeometry>
        </mxCell>
        <mxCell id="ytIPeGB8zy7AAXnz2NpN-127" value="" style="endArrow=blockThin;html=1;rounded=0;entryX=0.25;entryY=0;entryDx=0;entryDy=0;strokeWidth=1;strokeColor=#5C6A72;exitX=0.75;exitY=1;exitDx=0;exitDy=0;fontFamily=LXGW WenKai Mono Medium;fontSize=12;fontColor=#5C6A72;align=center;verticalAlign=middle;endFill=1;" parent="1" source="ytIPeGB8zy7AAXnz2NpN-104" target="ytIPeGB8zy7AAXnz2NpN-123" edge="1">
          <mxGeometry width="50" height="50" relative="1" as="geometry">
            <mxPoint x="290" y="600" as="sourcePoint" />
            <mxPoint x="540" y="620" as="targetPoint" />
            <Array as="points">
              <mxPoint x="335" y="540" />
              <mxPoint x="425" y="540" />
            </Array>
          </mxGeometry>
        </mxCell>
        <mxCell id="ytIPeGB8zy7AAXnz2NpN-128" value="&lt;font&gt;config.h.in&lt;/font&gt;" style="rounded=0;whiteSpace=wrap;html=1;strokeWidth=1;fillColor=none;strokeColor=#5C6A72;fontColor=#5C6A72;fillOpacity=50;fontFamily=LXGW WenKai Mono Medium;fontSize=12;align=center;verticalAlign=middle;" parent="1" vertex="1">
          <mxGeometry x="260" y="620" width="100" height="20" as="geometry" />
        </mxCell>
        <mxCell id="ytIPeGB8zy7AAXnz2NpN-129" value="&lt;font style=&quot;line-height: 100%;&quot;&gt;src/Makefile.in&lt;/font&gt;" style="rounded=0;whiteSpace=wrap;html=1;strokeWidth=1;fillColor=none;strokeColor=#5C6A72;fontColor=#5C6A72;fillOpacity=50;fontFamily=LXGW WenKai Mono Medium;fontSize=12;align=center;verticalAlign=middle;" parent="1" vertex="1">
          <mxGeometry x="540" y="620" width="100" height="20" as="geometry" />
        </mxCell>
        <mxCell id="ytIPeGB8zy7AAXnz2NpN-130" value="&lt;font&gt;Makefile.in&lt;/font&gt;" style="rounded=0;whiteSpace=wrap;html=1;strokeWidth=1;fillColor=none;strokeColor=#5C6A72;fontColor=#5C6A72;fillOpacity=50;fontFamily=LXGW WenKai Mono Medium;fontSize=12;align=center;verticalAlign=middle;" parent="1" vertex="1">
          <mxGeometry x="400" y="620" width="100" height="20" as="geometry" />
        </mxCell>
        <mxCell id="hnxFMZsX1aQDn-uRQMKV-82" style="edgeStyle=orthogonalEdgeStyle;rounded=0;orthogonalLoop=1;jettySize=auto;html=1;entryX=0.25;entryY=0;entryDx=0;entryDy=0;strokeWidth=1;strokeColor=#5C6A72;fontFamily=LXGW WenKai Mono Medium;fontSize=12;exitX=0.5;exitY=1;exitDx=0;exitDy=0;fontColor=#5C6A72;align=center;verticalAlign=middle;endArrow=blockThin;endFill=1;" parent="1" source="ytIPeGB8zy7AAXnz2NpN-131" target="hnxFMZsX1aQDn-uRQMKV-80" edge="1">
          <mxGeometry relative="1" as="geometry">
            <Array as="points">
              <mxPoint x="310" y="800" />
              <mxPoint x="425" y="800" />
            </Array>
            <mxPoint x="300" y="764.97" as="sourcePoint" />
            <mxPoint x="434.97" y="894.97" as="targetPoint" />
          </mxGeometry>
        </mxCell>
        <mxCell id="ytIPeGB8zy7AAXnz2NpN-131" value="&lt;font&gt;config.h&lt;/font&gt;" style="rounded=0;whiteSpace=wrap;html=1;strokeWidth=1;fillColor=none;strokeColor=#5C6A72;fontColor=#5C6A72;fillOpacity=50;fontFamily=LXGW WenKai Mono Medium;fontSize=12;align=center;verticalAlign=middle;" parent="1" vertex="1">
          <mxGeometry x="260" y="760" width="100" height="20" as="geometry" />
        </mxCell>
        <mxCell id="hnxFMZsX1aQDn-uRQMKV-83" style="edgeStyle=orthogonalEdgeStyle;rounded=0;orthogonalLoop=1;jettySize=auto;html=1;entryX=0.75;entryY=0;entryDx=0;entryDy=0;strokeWidth=1;strokeColor=#5C6A72;fontFamily=LXGW WenKai Mono Medium;fontSize=12;fontColor=#5C6A72;align=center;verticalAlign=middle;endArrow=blockThin;endFill=1;" parent="1" source="ytIPeGB8zy7AAXnz2NpN-132" target="hnxFMZsX1aQDn-uRQMKV-80" edge="1">
          <mxGeometry relative="1" as="geometry">
            <Array as="points">
              <mxPoint x="590" y="800" />
              <mxPoint x="475" y="800" />
            </Array>
          </mxGeometry>
        </mxCell>
        <mxCell id="ytIPeGB8zy7AAXnz2NpN-132" value="&lt;font&gt;src/Makefile&lt;/font&gt;" style="rounded=0;whiteSpace=wrap;html=1;strokeWidth=1;fillColor=none;strokeColor=#5C6A72;fontColor=#5C6A72;fillOpacity=50;fontFamily=LXGW WenKai Mono Medium;fontSize=12;align=center;verticalAlign=middle;" parent="1" vertex="1">
          <mxGeometry x="540" y="760" width="100" height="20" as="geometry" />
        </mxCell>
        <mxCell id="hnxFMZsX1aQDn-uRQMKV-81" style="edgeStyle=orthogonalEdgeStyle;rounded=0;orthogonalLoop=1;jettySize=auto;html=1;entryX=0.5;entryY=0;entryDx=0;entryDy=0;strokeWidth=1;strokeColor=#5C6A72;fontFamily=LXGW WenKai Mono Medium;fontSize=12;fontColor=#5C6A72;align=center;verticalAlign=middle;endArrow=blockThin;endFill=1;" parent="1" source="ytIPeGB8zy7AAXnz2NpN-133" target="hnxFMZsX1aQDn-uRQMKV-80" edge="1">
          <mxGeometry relative="1" as="geometry" />
        </mxCell>
        <mxCell id="ytIPeGB8zy7AAXnz2NpN-133" value="&lt;font&gt;Makefile&lt;/font&gt;" style="rounded=0;whiteSpace=wrap;html=1;strokeWidth=1;fillColor=none;strokeColor=#5C6A72;fontColor=#5C6A72;fillOpacity=50;fontFamily=LXGW WenKai Mono Medium;fontSize=12;align=center;verticalAlign=middle;" parent="1" vertex="1">
          <mxGeometry x="400" y="760" width="100" height="20" as="geometry" />
        </mxCell>
        <mxCell id="ytIPeGB8zy7AAXnz2NpN-155" style="edgeStyle=orthogonalEdgeStyle;rounded=0;orthogonalLoop=1;jettySize=auto;html=1;exitX=0.25;exitY=1;exitDx=0;exitDy=0;strokeWidth=1;strokeColor=#E67E80;fontFamily=LXGW WenKai Mono Medium;fontSize=12;fontColor=#5C6A72;align=center;verticalAlign=middle;endArrow=blockThin;endFill=1;entryX=0.25;entryY=0;entryDx=0;entryDy=0;" parent="1" source="ytIPeGB8zy7AAXnz2NpN-84" target="ytIPeGB8zy7AAXnz2NpN-101" edge="1">
          <mxGeometry relative="1" as="geometry">
            <Array as="points" />
            <mxPoint x="105" y="709.9400000000003" as="sourcePoint" />
            <mxPoint x="100" y="810" as="targetPoint" />
          </mxGeometry>
        </mxCell>
        <mxCell id="ytIPeGB8zy7AAXnz2NpN-156" style="edgeStyle=orthogonalEdgeStyle;rounded=0;orthogonalLoop=1;jettySize=auto;html=1;entryX=0.5;entryY=0;entryDx=0;entryDy=0;strokeWidth=1;strokeColor=#E67E80;exitX=0.5;exitY=1;exitDx=0;exitDy=0;fontFamily=LXGW WenKai Mono Medium;fontSize=12;fontColor=#5C6A72;align=center;verticalAlign=middle;endArrow=blockThin;endFill=1;" parent="1" source="ytIPeGB8zy7AAXnz2NpN-113" target="ytIPeGB8zy7AAXnz2NpN-84" edge="1">
          <mxGeometry relative="1" as="geometry">
            <mxPoint x="340" y="690" as="sourcePoint" />
            <mxPoint x="340" y="730" as="targetPoint" />
            <Array as="points">
              <mxPoint x="170" y="650" />
              <mxPoint x="170" y="650" />
            </Array>
          </mxGeometry>
        </mxCell>
        <mxCell id="hnxFMZsX1aQDn-uRQMKV-78" style="edgeStyle=orthogonalEdgeStyle;rounded=0;orthogonalLoop=1;jettySize=auto;html=1;entryX=0.5;entryY=0;entryDx=0;entryDy=0;strokeColor=#E67E80;strokeWidth=1;fontFamily=LXGW WenKai Mono Medium;fontSize=12;fontColor=#5C6A72;align=center;verticalAlign=middle;endArrow=blockThin;endFill=1;" parent="1" source="hnxFMZsX1aQDn-uRQMKV-75" target="hnxFMZsX1aQDn-uRQMKV-76" edge="1">
          <mxGeometry relative="1" as="geometry" />
        </mxCell>
        <mxCell id="hnxFMZsX1aQDn-uRQMKV-75" value="&lt;font&gt;autoscan&lt;/font&gt;" style="rounded=0;whiteSpace=wrap;html=1;strokeWidth=1;fillColor=#E67E80;strokeColor=#E67E80;perimeterSpacing=0;glass=0;shadow=0;fillStyle=solid;gradientColor=none;fillOpacity=50;fontFamily=LXGW WenKai Mono Medium;fontSize=12;fontColor=#5C6A72;align=center;verticalAlign=middle;" parent="1" vertex="1">
          <mxGeometry x="260" y="320" width="100" height="20" as="geometry" />
        </mxCell>
        <mxCell id="hnxFMZsX1aQDn-uRQMKV-79" style="edgeStyle=orthogonalEdgeStyle;rounded=0;orthogonalLoop=1;jettySize=auto;html=1;entryX=0.5;entryY=0;entryDx=0;entryDy=0;strokeColor=#5C6A72;strokeWidth=1;fontFamily=LXGW WenKai Mono Medium;fontSize=12;fontColor=#5C6A72;align=center;verticalAlign=middle;endArrow=blockThin;endFill=1;exitX=0.5;exitY=1;exitDx=0;exitDy=0;" parent="1" source="hnxFMZsX1aQDn-uRQMKV-76" target="ytIPeGB8zy7AAXnz2NpN-104" edge="1">
          <mxGeometry relative="1" as="geometry">
            <Array as="points" />
          </mxGeometry>
        </mxCell>
        <mxCell id="hnxFMZsX1aQDn-uRQMKV-76" value="&lt;font&gt;configure.scan&lt;/font&gt;" style="rounded=0;whiteSpace=wrap;html=1;strokeWidth=1;fillColor=none;strokeColor=#5C6A72;fontColor=#5C6A72;fillOpacity=50;fontFamily=LXGW WenKai Mono Medium;fontSize=12;align=center;verticalAlign=middle;" parent="1" vertex="1">
          <mxGeometry x="260" y="380" width="100" height="20" as="geometry" />
        </mxCell>
        <mxCell id="hnxFMZsX1aQDn-uRQMKV-85" style="edgeStyle=orthogonalEdgeStyle;rounded=0;orthogonalLoop=1;jettySize=auto;html=1;entryX=0.5;entryY=0;entryDx=0;entryDy=0;strokeWidth=1;strokeColor=#E67E80;fontFamily=LXGW WenKai Mono Medium;fontSize=12;fontColor=#5C6A72;align=center;verticalAlign=middle;endArrow=blockThin;endFill=1;" parent="1" source="hnxFMZsX1aQDn-uRQMKV-80" target="hnxFMZsX1aQDn-uRQMKV-84" edge="1">
          <mxGeometry relative="1" as="geometry" />
        </mxCell>
        <mxCell id="hnxFMZsX1aQDn-uRQMKV-80" value="&lt;font style=&quot;line-height: 100%;&quot;&gt;make&lt;/font&gt;" style="rounded=0;whiteSpace=wrap;html=1;strokeWidth=1;fillColor=#E67E80;strokeColor=#E67E80;perimeterSpacing=0;glass=0;shadow=0;fillStyle=solid;gradientColor=none;fillOpacity=50;fontFamily=LXGW WenKai Mono Medium;fontSize=12;fontColor=#5C6A72;align=center;verticalAlign=middle;" parent="1" vertex="1">
          <mxGeometry x="400" y="820" width="100" height="20" as="geometry" />
        </mxCell>
        <mxCell id="hnxFMZsX1aQDn-uRQMKV-84" value="&lt;font&gt;&lt;span style=&quot;line-height: 100%;&quot;&gt;executable&lt;/span&gt;&lt;/font&gt;" style="rounded=0;whiteSpace=wrap;html=1;strokeWidth=1;fillColor=#A7C080;strokeColor=#A7C080;fontColor=#5C6A72;fillOpacity=50;fontFamily=LXGW WenKai Mono Medium;fontSize=12;align=center;verticalAlign=middle;" parent="1" vertex="1">
          <mxGeometry x="400" y="880" width="100" height="20" as="geometry" />
        </mxCell>
        <mxCell id="YWZh4g9MahYR2gCQEbai-2" value="" style="rounded=0;whiteSpace=wrap;html=1;strokeWidth=1;fillColor=#FDF6E3;strokeColor=#5C6A72;fontColor=light-dark(#2e3440, #c1c1c1);fillOpacity=100;fontFamily=LXGW WenKai Mono Medium;fillStyle=solid;fontStyle=0;fontSize=14;" parent="1" vertex="1">
          <mxGeometry width="200" height="200" as="geometry" />
        </mxCell>
        <mxCell id="YWZh4g9MahYR2gCQEbai-3" value="&lt;font style=&quot;color: rgb(92, 106, 114);&quot;&gt;#E67E80&lt;/font&gt;" style="rounded=0;whiteSpace=wrap;html=1;strokeWidth=1;fillColor=#E67E80;strokeColor=#5C6A72;fontColor=light-dark(#2e3440, #c1c1c1);fillOpacity=50;fontFamily=LXGW WenKai Mono Medium;fillStyle=solid;fontStyle=0;fontSize=14;" parent="1" vertex="1">
          <mxGeometry x="20" y="40" width="80" height="20" as="geometry" />
        </mxCell>
        <mxCell id="YWZh4g9MahYR2gCQEbai-4" value="&lt;font style=&quot;color: rgb(92, 106, 114);&quot;&gt;#E69875&lt;/font&gt;" style="rounded=0;whiteSpace=wrap;html=1;strokeWidth=1;fillColor=#E69875;strokeColor=#5C6A72;fontColor=light-dark(#2e3440, #c1c1c1);fillOpacity=50;fontFamily=LXGW WenKai Mono Medium;fillStyle=solid;fontStyle=0;fontSize=14;" parent="1" vertex="1">
          <mxGeometry x="20" y="60" width="80" height="20" as="geometry" />
        </mxCell>
        <mxCell id="YWZh4g9MahYR2gCQEbai-5" value="&lt;font style=&quot;color: rgb(92, 106, 114);&quot;&gt;#DBBC7F&lt;/font&gt;" style="rounded=0;whiteSpace=wrap;html=1;strokeWidth=1;fillColor=#DBBC7F;strokeColor=#5C6A72;fontColor=light-dark(#2e3440, #c1c1c1);fillOpacity=50;fontFamily=LXGW WenKai Mono Medium;fillStyle=solid;fontStyle=0;fontSize=14;" parent="1" vertex="1">
          <mxGeometry x="20" y="80" width="80" height="20" as="geometry" />
        </mxCell>
        <mxCell id="YWZh4g9MahYR2gCQEbai-6" value="&lt;font style=&quot;color: rgb(92, 106, 114);&quot;&gt;#A7C080&lt;/font&gt;" style="rounded=0;whiteSpace=wrap;html=1;strokeWidth=1;fillColor=#A7C080;strokeColor=#5C6A72;fontColor=light-dark(#2e3440, #c1c1c1);fillOpacity=50;fontFamily=LXGW WenKai Mono Medium;fillStyle=solid;fontStyle=0;fontSize=14;" parent="1" vertex="1">
          <mxGeometry x="20" y="100" width="80" height="20" as="geometry" />
        </mxCell>
        <mxCell id="YWZh4g9MahYR2gCQEbai-7" value="&lt;font style=&quot;color: rgb(92, 106, 114);&quot;&gt;#7FBBB3&lt;/font&gt;" style="rounded=0;whiteSpace=wrap;html=1;strokeWidth=1;fillColor=#7FBBB3;strokeColor=#5C6A72;fontColor=light-dark(#2e3440, #c1c1c1);fillOpacity=50;fontFamily=LXGW WenKai Mono Medium;fillStyle=solid;fontStyle=0;fontSize=14;" parent="1" vertex="1">
          <mxGeometry x="20" y="120" width="80" height="20" as="geometry" />
        </mxCell>
        <mxCell id="YWZh4g9MahYR2gCQEbai-8" value="&lt;font style=&quot;color: rgb(92, 106, 114);&quot;&gt;#83C092&lt;/font&gt;" style="rounded=0;whiteSpace=wrap;html=1;strokeWidth=1;fillColor=#83C092;strokeColor=#5C6A72;fontColor=light-dark(#2e3440, #c1c1c1);fillOpacity=50;fontFamily=LXGW WenKai Mono Medium;fillStyle=solid;fontStyle=0;fontSize=14;" parent="1" vertex="1">
          <mxGeometry x="20" y="140" width="80" height="20" as="geometry" />
        </mxCell>
        <mxCell id="YWZh4g9MahYR2gCQEbai-9" value="&lt;font style=&quot;color: rgb(92, 106, 114);&quot;&gt;#D699B6&lt;/font&gt;" style="rounded=0;whiteSpace=wrap;html=1;strokeWidth=1;fillColor=#D699B6;strokeColor=#5C6A72;fontColor=light-dark(#2e3440, #c1c1c1);fillOpacity=50;fontFamily=LXGW WenKai Mono Medium;fillStyle=solid;fontStyle=0;fontSize=14;" parent="1" vertex="1">
          <mxGeometry x="20" y="160" width="80" height="20" as="geometry" />
        </mxCell>
        <mxCell id="YWZh4g9MahYR2gCQEbai-10" value="&lt;font style=&quot;color: rgb(92, 106, 114);&quot;&gt;#F85552&lt;/font&gt;" style="rounded=0;whiteSpace=wrap;html=1;strokeWidth=1;fillColor=#F85552;strokeColor=#5C6A72;fontColor=light-dark(#2e3440, #c1c1c1);fillOpacity=50;fontFamily=LXGW WenKai Mono Medium;fillStyle=solid;fontStyle=0;fontSize=14;" parent="1" vertex="1">
          <mxGeometry x="100" y="40" width="80" height="20" as="geometry" />
        </mxCell>
        <mxCell id="YWZh4g9MahYR2gCQEbai-11" value="&lt;font style=&quot;color: rgb(92, 106, 114);&quot;&gt;#F57D26&lt;/font&gt;" style="rounded=0;whiteSpace=wrap;html=1;strokeWidth=1;fillColor=#F57D26;strokeColor=#5C6A72;fontColor=light-dark(#2e3440, #c1c1c1);fillOpacity=50;fontFamily=LXGW WenKai Mono Medium;fillStyle=solid;fontStyle=0;fontSize=14;" parent="1" vertex="1">
          <mxGeometry x="100" y="60" width="80" height="20" as="geometry" />
        </mxCell>
        <mxCell id="YWZh4g9MahYR2gCQEbai-12" value="&lt;font style=&quot;color: rgb(92, 106, 114);&quot;&gt;#DFA000&lt;/font&gt;" style="rounded=0;whiteSpace=wrap;html=1;strokeWidth=1;fillColor=#DFA000;strokeColor=#5C6A72;fontColor=light-dark(#2e3440, #c1c1c1);fillOpacity=50;fontFamily=LXGW WenKai Mono Medium;fillStyle=solid;fontStyle=0;fontSize=14;" parent="1" vertex="1">
          <mxGeometry x="100" y="80" width="80" height="20" as="geometry" />
        </mxCell>
        <mxCell id="YWZh4g9MahYR2gCQEbai-13" value="&lt;font style=&quot;color: rgb(92, 106, 114);&quot;&gt;#8DA101&lt;/font&gt;" style="rounded=0;whiteSpace=wrap;html=1;strokeWidth=1;fillColor=#8DA101;strokeColor=#5C6A72;fontColor=light-dark(#2e3440, #c1c1c1);fillOpacity=50;fontFamily=LXGW WenKai Mono Medium;fillStyle=solid;fontStyle=0;fontSize=14;" parent="1" vertex="1">
          <mxGeometry x="100" y="100" width="80" height="20" as="geometry" />
        </mxCell>
        <mxCell id="YWZh4g9MahYR2gCQEbai-14" value="&lt;font style=&quot;color: rgb(92, 106, 114);&quot;&gt;#3A94C5&lt;/font&gt;" style="rounded=0;whiteSpace=wrap;html=1;strokeWidth=1;fillColor=#3A94C5;strokeColor=#5C6A72;fontColor=light-dark(#2e3440, #c1c1c1);fillOpacity=50;fontFamily=LXGW WenKai Mono Medium;fillStyle=solid;fontStyle=0;fontSize=14;" parent="1" vertex="1">
          <mxGeometry x="100" y="120" width="80" height="20" as="geometry" />
        </mxCell>
        <mxCell id="YWZh4g9MahYR2gCQEbai-15" value="&lt;font style=&quot;color: rgb(92, 106, 114);&quot;&gt;#35A77C&lt;/font&gt;" style="rounded=0;whiteSpace=wrap;html=1;strokeWidth=1;fillColor=#35A77C;strokeColor=#5C6A72;fontColor=light-dark(#2e3440, #c1c1c1);fillOpacity=50;fontFamily=LXGW WenKai Mono Medium;fillStyle=solid;fontStyle=0;fontSize=14;" parent="1" vertex="1">
          <mxGeometry x="100" y="140" width="80" height="20" as="geometry" />
        </mxCell>
        <mxCell id="YWZh4g9MahYR2gCQEbai-16" value="&lt;font style=&quot;color: rgb(92, 106, 114);&quot;&gt;#DF69BA&lt;/font&gt;" style="rounded=0;whiteSpace=wrap;html=1;strokeWidth=1;fillColor=#DF69BA;strokeColor=#5C6A72;fontColor=light-dark(#2e3440, #c1c1c1);fillOpacity=50;fontFamily=LXGW WenKai Mono Medium;fillStyle=solid;fontStyle=0;fontSize=14;" parent="1" vertex="1">
          <mxGeometry x="100" y="160" width="80" height="20" as="geometry" />
        </mxCell>
        <mxCell id="YWZh4g9MahYR2gCQEbai-17" value="&lt;font style=&quot;color: rgb(92, 106, 114);&quot;&gt;#5C6A72&lt;/font&gt;" style="rounded=0;whiteSpace=wrap;html=1;strokeWidth=1;fillColor=#2D353B;strokeColor=#5C6A72;fontColor=light-dark(#2e3440, #c1c1c1);fillOpacity=50;fontFamily=LXGW WenKai Mono Medium;fillStyle=solid;fontStyle=0;fontSize=14;" parent="1" vertex="1">
          <mxGeometry x="20" y="20" width="80" height="20" as="geometry" />
        </mxCell>
        <mxCell id="YWZh4g9MahYR2gCQEbai-18" value="&lt;font style=&quot;color: rgb(92, 106, 114);&quot;&gt;#FDF6E3&lt;/font&gt;" style="rounded=0;whiteSpace=wrap;html=1;strokeWidth=1;fillColor=#FDF6E3;strokeColor=#5C6A72;fontColor=light-dark(#2e3440, #c1c1c1);fillOpacity=100;fontFamily=LXGW WenKai Mono Medium;fillStyle=solid;fontStyle=0;fontSize=14;" parent="1" vertex="1">
          <mxGeometry x="100" y="20" width="80" height="20" as="geometry" />
        </mxCell>
        <mxCell id="YWZh4g9MahYR2gCQEbai-74" value="" style="endArrow=blockThin;html=1;rounded=0;exitX=0.5;exitY=1;exitDx=0;exitDy=0;entryX=0.5;entryY=0;entryDx=0;entryDy=0;strokeColor=#7FBBB3;fontColor=#5C6A72;fontFamily=LXGW WenKai Mono Medium;fontSize=12;align=center;verticalAlign=middle;endFill=1;" parent="1" source="ytIPeGB8zy7AAXnz2NpN-117" target="ytIPeGB8zy7AAXnz2NpN-113" edge="1">
          <mxGeometry width="50" height="50" relative="1" as="geometry">
            <mxPoint x="240" y="580" as="sourcePoint" />
            <mxPoint x="290" y="530" as="targetPoint" />
          </mxGeometry>
        </mxCell>
        <mxCell id="ytIPeGB8zy7AAXnz2NpN-83" style="edgeStyle=orthogonalEdgeStyle;rounded=0;orthogonalLoop=1;jettySize=auto;html=1;exitX=0.75;exitY=0;exitDx=0;exitDy=0;entryX=0.75;entryY=0;entryDx=0;entryDy=0;strokeWidth=1;strokeColor=#E67E80;fontFamily=LXGW WenKai Mono Medium;fontSize=12;fontColor=#5C6A72;align=center;verticalAlign=middle;endArrow=blockThin;endFill=1;" parent="1" source="ytIPeGB8zy7AAXnz2NpN-84" target="ytIPeGB8zy7AAXnz2NpN-96" edge="1">
          <mxGeometry relative="1" as="geometry">
            <Array as="points">
              <mxPoint x="195" y="680" />
              <mxPoint x="755" y="680" />
            </Array>
          </mxGeometry>
        </mxCell>
        <mxCell id="9ZmwkrKqa4zjrhgP0yqL-100" style="edgeStyle=orthogonalEdgeStyle;rounded=0;orthogonalLoop=1;jettySize=auto;html=1;entryX=0;entryY=0.5;entryDx=0;entryDy=0;strokeWidth=1;strokeColor=#E67E80;fontFamily=LXGW WenKai Mono Medium;fontSize=12;fontColor=#5C6A72;align=center;verticalAlign=middle;endArrow=blockThin;endFill=1;" parent="1" source="9ZmwkrKqa4zjrhgP0yqL-101" target="9ZmwkrKqa4zjrhgP0yqL-106" edge="1">
          <mxGeometry relative="1" as="geometry" />
        </mxCell>
        <mxCell id="9ZmwkrKqa4zjrhgP0yqL-101" value="&lt;font&gt;./configure&lt;/font&gt;" style="rounded=0;whiteSpace=wrap;html=1;strokeWidth=1;fillColor=#E67E80;strokeColor=#E67E80;perimeterSpacing=0;glass=0;shadow=0;fillStyle=solid;gradientColor=none;fillOpacity=50;fontFamily=LXGW WenKai Mono Medium;fontSize=12;fontColor=#5C6A72;align=center;verticalAlign=middle;" parent="1" vertex="1">
          <mxGeometry x="120" y="1239.97" width="100" height="20" as="geometry" />
        </mxCell>
        <mxCell id="9ZmwkrKqa4zjrhgP0yqL-102" style="edgeStyle=orthogonalEdgeStyle;rounded=0;orthogonalLoop=1;jettySize=auto;html=1;exitX=1;exitY=0.5;exitDx=0;exitDy=0;entryX=0.25;entryY=0;entryDx=0;entryDy=0;strokeWidth=1;strokeColor=#E67E80;fontFamily=LXGW WenKai Mono Medium;fontSize=12;fontColor=#5C6A72;align=center;verticalAlign=middle;endArrow=blockThin;endFill=1;" parent="1" source="9ZmwkrKqa4zjrhgP0yqL-106" target="9ZmwkrKqa4zjrhgP0yqL-110" edge="1">
          <mxGeometry relative="1" as="geometry">
            <Array as="points">
              <mxPoint x="705" y="1250" />
            </Array>
          </mxGeometry>
        </mxCell>
        <mxCell id="9ZmwkrKqa4zjrhgP0yqL-103" style="edgeStyle=orthogonalEdgeStyle;rounded=0;orthogonalLoop=1;jettySize=auto;html=1;entryX=0.5;entryY=0;entryDx=0;entryDy=0;strokeWidth=1;strokeColor=#E67E80;fontFamily=LXGW WenKai Mono Medium;fontSize=12;fontColor=#5C6A72;align=center;verticalAlign=middle;endArrow=blockThin;endFill=1;" parent="1" source="9ZmwkrKqa4zjrhgP0yqL-106" target="9ZmwkrKqa4zjrhgP0yqL-118" edge="1">
          <mxGeometry relative="1" as="geometry">
            <mxPoint x="450" y="1349.97" as="targetPoint" />
          </mxGeometry>
        </mxCell>
        <mxCell id="9ZmwkrKqa4zjrhgP0yqL-104" style="edgeStyle=orthogonalEdgeStyle;rounded=0;orthogonalLoop=1;jettySize=auto;html=1;exitX=0.25;exitY=1;exitDx=0;exitDy=0;entryX=0.5;entryY=0;entryDx=0;entryDy=0;strokeWidth=1;strokeColor=#E67E80;fontFamily=LXGW WenKai Mono Medium;fontSize=12;fontColor=#5C6A72;align=center;verticalAlign=middle;endArrow=blockThin;endFill=1;" parent="1" source="9ZmwkrKqa4zjrhgP0yqL-106" target="9ZmwkrKqa4zjrhgP0yqL-116" edge="1">
          <mxGeometry relative="1" as="geometry">
            <Array as="points">
              <mxPoint x="425" y="1280" />
              <mxPoint x="310" y="1280" />
            </Array>
            <mxPoint x="290" y="1349.97" as="targetPoint" />
          </mxGeometry>
        </mxCell>
        <mxCell id="9ZmwkrKqa4zjrhgP0yqL-105" style="edgeStyle=orthogonalEdgeStyle;rounded=0;orthogonalLoop=1;jettySize=auto;html=1;exitX=0.75;exitY=1;exitDx=0;exitDy=0;entryX=0.5;entryY=0;entryDx=0;entryDy=0;strokeWidth=1;strokeColor=#E67E80;fontFamily=LXGW WenKai Mono Medium;fontSize=12;fontColor=#5C6A72;align=center;verticalAlign=middle;endArrow=blockThin;endFill=1;" parent="1" source="9ZmwkrKqa4zjrhgP0yqL-106" target="9ZmwkrKqa4zjrhgP0yqL-117" edge="1">
          <mxGeometry relative="1" as="geometry">
            <Array as="points">
              <mxPoint x="475" y="1280" />
              <mxPoint x="590" y="1280" />
            </Array>
            <mxPoint x="610" y="1349.97" as="targetPoint" />
          </mxGeometry>
        </mxCell>
        <mxCell id="9ZmwkrKqa4zjrhgP0yqL-106" value="&lt;font&gt;config.status&lt;/font&gt;" style="rounded=0;whiteSpace=wrap;html=1;strokeWidth=1;fillColor=#E67E80;strokeColor=#E67E80;fillOpacity=50;fontFamily=LXGW WenKai Mono Medium;fontSize=12;fontColor=#5C6A72;align=center;verticalAlign=middle;" parent="1" vertex="1">
          <mxGeometry x="400" y="1239.97" width="100" height="20" as="geometry" />
        </mxCell>
        <mxCell id="9ZmwkrKqa4zjrhgP0yqL-107" style="edgeStyle=orthogonalEdgeStyle;rounded=0;orthogonalLoop=1;jettySize=auto;html=1;entryX=0.25;entryY=0;entryDx=0;entryDy=0;strokeWidth=1;strokeColor=#5C6A72;fontFamily=LXGW WenKai Mono Medium;fontSize=12;exitX=0.5;exitY=1;exitDx=0;exitDy=0;fontColor=#5C6A72;align=center;verticalAlign=middle;endArrow=blockThin;endFill=1;" parent="1" source="9ZmwkrKqa4zjrhgP0yqL-113" target="9ZmwkrKqa4zjrhgP0yqL-106" edge="1">
          <mxGeometry relative="1" as="geometry">
            <Array as="points">
              <mxPoint x="310" y="1200" />
              <mxPoint x="425" y="1200" />
            </Array>
            <mxPoint x="290" y="1300" as="sourcePoint" />
          </mxGeometry>
        </mxCell>
        <mxCell id="9ZmwkrKqa4zjrhgP0yqL-108" style="edgeStyle=orthogonalEdgeStyle;rounded=0;orthogonalLoop=1;jettySize=auto;html=1;strokeWidth=1;strokeColor=#5C6A72;fontFamily=LXGW WenKai Mono Medium;fontSize=12;exitX=0.5;exitY=1;exitDx=0;exitDy=0;entryX=0.5;entryY=0;entryDx=0;entryDy=0;fontColor=#5C6A72;align=center;verticalAlign=middle;endArrow=blockThin;endFill=1;" parent="1" source="9ZmwkrKqa4zjrhgP0yqL-115" target="9ZmwkrKqa4zjrhgP0yqL-106" edge="1">
          <mxGeometry relative="1" as="geometry">
            <mxPoint x="450" y="1420" as="targetPoint" />
            <mxPoint x="450" y="1300" as="sourcePoint" />
          </mxGeometry>
        </mxCell>
        <mxCell id="9ZmwkrKqa4zjrhgP0yqL-109" style="edgeStyle=orthogonalEdgeStyle;rounded=0;orthogonalLoop=1;jettySize=auto;html=1;entryX=0.75;entryY=0;entryDx=0;entryDy=0;strokeWidth=1;strokeColor=#5C6A72;fontFamily=LXGW WenKai Mono Medium;fontSize=12;exitX=0.5;exitY=1;exitDx=0;exitDy=0;fontColor=#5C6A72;align=center;verticalAlign=middle;endArrow=blockThin;endFill=1;" parent="1" source="9ZmwkrKqa4zjrhgP0yqL-114" target="9ZmwkrKqa4zjrhgP0yqL-106" edge="1">
          <mxGeometry relative="1" as="geometry">
            <Array as="points">
              <mxPoint x="590" y="1200" />
              <mxPoint x="475" y="1200" />
            </Array>
            <mxPoint x="610" y="1300" as="sourcePoint" />
          </mxGeometry>
        </mxCell>
        <mxCell id="9ZmwkrKqa4zjrhgP0yqL-110" value="&lt;font&gt;config.log&lt;/font&gt;" style="rounded=0;whiteSpace=wrap;html=1;strokeWidth=1;fillColor=#7FBBB3;strokeColor=#7FBBB3;fontColor=#5C6A72;fillOpacity=50;fontFamily=LXGW WenKai Mono Medium;fontSize=12;align=center;verticalAlign=middle;" parent="1" vertex="1">
          <mxGeometry x="680" y="1300" width="100" height="20" as="geometry" />
        </mxCell>
        <mxCell id="9ZmwkrKqa4zjrhgP0yqL-111" style="edgeStyle=orthogonalEdgeStyle;rounded=0;orthogonalLoop=1;jettySize=auto;html=1;strokeWidth=1;strokeColor=#7FBBB3;fontFamily=LXGW WenKai Mono Medium;fontSize=12;fontColor=#5C6A72;align=center;verticalAlign=middle;endArrow=blockThin;endFill=1;entryX=0.75;entryY=1;entryDx=0;entryDy=0;exitX=0.75;exitY=0;exitDx=0;exitDy=0;" parent="1" source="9ZmwkrKqa4zjrhgP0yqL-112" target="9ZmwkrKqa4zjrhgP0yqL-101" edge="1">
          <mxGeometry relative="1" as="geometry">
            <Array as="points">
              <mxPoint x="195" y="1280" />
              <mxPoint x="195" y="1280" />
            </Array>
            <mxPoint x="269.97" y="1330" as="sourcePoint" />
            <mxPoint x="259.97" y="1430" as="targetPoint" />
          </mxGeometry>
        </mxCell>
        <mxCell id="9ZmwkrKqa4zjrhgP0yqL-112" value="&lt;font&gt;config.cache&lt;/font&gt;" style="rounded=0;whiteSpace=wrap;html=1;strokeWidth=1;fillColor=#7FBBB3;strokeColor=#7FBBB3;fontColor=#5C6A72;fillOpacity=50;fontFamily=LXGW WenKai Mono Medium;fontSize=12;align=center;verticalAlign=middle;" parent="1" vertex="1">
          <mxGeometry x="120" y="1300" width="100" height="20" as="geometry" />
        </mxCell>
        <mxCell id="9ZmwkrKqa4zjrhgP0yqL-113" value="&lt;font&gt;config.h.in&lt;/font&gt;" style="rounded=0;whiteSpace=wrap;html=1;strokeWidth=1;fillColor=none;strokeColor=#5C6A72;fontColor=#5C6A72;fillOpacity=50;fontFamily=LXGW WenKai Mono Medium;fontSize=12;align=center;verticalAlign=middle;" parent="1" vertex="1">
          <mxGeometry x="260" y="1160" width="100" height="20" as="geometry" />
        </mxCell>
        <mxCell id="9ZmwkrKqa4zjrhgP0yqL-114" value="&lt;font style=&quot;line-height: 100%;&quot;&gt;src/Makefile.in&lt;/font&gt;" style="rounded=0;whiteSpace=wrap;html=1;strokeWidth=1;fillColor=none;strokeColor=#5C6A72;fontColor=#5C6A72;fillOpacity=50;fontFamily=LXGW WenKai Mono Medium;fontSize=12;align=center;verticalAlign=middle;" parent="1" vertex="1">
          <mxGeometry x="540" y="1160" width="100" height="20" as="geometry" />
        </mxCell>
        <mxCell id="9ZmwkrKqa4zjrhgP0yqL-115" value="&lt;font&gt;Makefile.in&lt;/font&gt;" style="rounded=0;whiteSpace=wrap;html=1;strokeWidth=1;fillColor=none;strokeColor=#5C6A72;fontColor=#5C6A72;fillOpacity=50;fontFamily=LXGW WenKai Mono Medium;fontSize=12;align=center;verticalAlign=middle;" parent="1" vertex="1">
          <mxGeometry x="400" y="1160" width="100" height="20" as="geometry" />
        </mxCell>
        <mxCell id="9ZmwkrKqa4zjrhgP0yqL-116" value="&lt;font&gt;config.h&lt;/font&gt;" style="rounded=0;whiteSpace=wrap;html=1;strokeWidth=1;fillColor=none;strokeColor=#5C6A72;fontColor=#5C6A72;fillOpacity=50;fontFamily=LXGW WenKai Mono Medium;fontSize=12;align=center;verticalAlign=middle;" parent="1" vertex="1">
          <mxGeometry x="260" y="1300" width="100" height="20" as="geometry" />
        </mxCell>
        <mxCell id="9ZmwkrKqa4zjrhgP0yqL-117" value="&lt;font&gt;src/Makefile&lt;/font&gt;" style="rounded=0;whiteSpace=wrap;html=1;strokeWidth=1;fillColor=none;strokeColor=#5C6A72;fontColor=#5C6A72;fillOpacity=50;fontFamily=LXGW WenKai Mono Medium;fontSize=12;align=center;verticalAlign=middle;" parent="1" vertex="1">
          <mxGeometry x="540" y="1300" width="100" height="20" as="geometry" />
        </mxCell>
        <mxCell id="9ZmwkrKqa4zjrhgP0yqL-118" value="&lt;font&gt;Makefile&lt;/font&gt;" style="rounded=0;whiteSpace=wrap;html=1;strokeWidth=1;fillColor=none;strokeColor=#5C6A72;fontColor=#5C6A72;fillOpacity=50;fontFamily=LXGW WenKai Mono Medium;fontSize=12;align=center;verticalAlign=middle;" parent="1" vertex="1">
          <mxGeometry x="400" y="1300" width="100" height="20" as="geometry" />
        </mxCell>
        <mxCell id="9ZmwkrKqa4zjrhgP0yqL-119" style="edgeStyle=orthogonalEdgeStyle;rounded=0;orthogonalLoop=1;jettySize=auto;html=1;exitX=0.25;exitY=1;exitDx=0;exitDy=0;strokeWidth=1;strokeColor=#E67E80;fontFamily=LXGW WenKai Mono Medium;fontSize=12;fontColor=#5C6A72;align=center;verticalAlign=middle;endArrow=blockThin;endFill=1;entryX=0.25;entryY=0;entryDx=0;entryDy=0;" parent="1" source="9ZmwkrKqa4zjrhgP0yqL-101" target="9ZmwkrKqa4zjrhgP0yqL-112" edge="1">
          <mxGeometry relative="1" as="geometry">
            <Array as="points" />
            <mxPoint x="105" y="1249.9400000000003" as="sourcePoint" />
            <mxPoint x="100" y="1350" as="targetPoint" />
          </mxGeometry>
        </mxCell>
        <mxCell id="9ZmwkrKqa4zjrhgP0yqL-120" style="edgeStyle=orthogonalEdgeStyle;rounded=0;orthogonalLoop=1;jettySize=auto;html=1;exitX=0.75;exitY=0;exitDx=0;exitDy=0;entryX=0.75;entryY=0;entryDx=0;entryDy=0;strokeWidth=1;strokeColor=#E67E80;fontFamily=LXGW WenKai Mono Medium;fontSize=12;fontColor=#5C6A72;align=center;verticalAlign=middle;endArrow=blockThin;endFill=1;" parent="1" source="9ZmwkrKqa4zjrhgP0yqL-101" target="9ZmwkrKqa4zjrhgP0yqL-110" edge="1">
          <mxGeometry relative="1" as="geometry">
            <Array as="points">
              <mxPoint x="195" y="1220" />
              <mxPoint x="755" y="1220" />
            </Array>
          </mxGeometry>
        </mxCell>
        <mxCell id="9ZmwkrKqa4zjrhgP0yqL-121" value="&lt;font&gt;configure.ac&lt;/font&gt;" style="rounded=0;whiteSpace=wrap;html=1;strokeWidth=1;fillColor=none;strokeColor=#5C6A72;fontColor=#5C6A72;fillOpacity=50;fontFamily=LXGW WenKai Mono Medium;fontSize=12;align=center;verticalAlign=middle;" parent="1" vertex="1">
          <mxGeometry x="120" y="1440" width="100" height="20" as="geometry" />
        </mxCell>
        <mxCell id="9ZmwkrKqa4zjrhgP0yqL-122" value="&lt;font&gt;autoconf&lt;/font&gt;" style="rounded=0;whiteSpace=wrap;html=1;strokeWidth=1;fillColor=#E67E80;strokeColor=#E67E80;perimeterSpacing=0;glass=0;shadow=0;fillStyle=solid;gradientColor=none;fillOpacity=50;fontFamily=LXGW WenKai Mono Medium;fontSize=12;fontColor=#5C6A72;align=center;verticalAlign=middle;" parent="1" vertex="1">
          <mxGeometry x="120" y="1500" width="100" height="20" as="geometry" />
        </mxCell>
        <mxCell id="9ZmwkrKqa4zjrhgP0yqL-123" value="" style="endArrow=blockThin;html=1;rounded=0;entryX=0.5;entryY=0;entryDx=0;entryDy=0;strokeWidth=1;strokeColor=#5C6A72;exitX=0.5;exitY=1;exitDx=0;exitDy=0;fontFamily=LXGW WenKai Mono Medium;fontSize=12;fontColor=#5C6A72;align=center;verticalAlign=middle;endFill=1;" parent="1" source="9ZmwkrKqa4zjrhgP0yqL-121" target="9ZmwkrKqa4zjrhgP0yqL-122" edge="1">
          <mxGeometry width="50" height="50" relative="1" as="geometry">
            <mxPoint x="290" y="1540" as="sourcePoint" />
            <mxPoint x="130" y="1670" as="targetPoint" />
            <Array as="points" />
          </mxGeometry>
        </mxCell>
        <mxCell id="9ZmwkrKqa4zjrhgP0yqL-124" style="edgeStyle=orthogonalEdgeStyle;rounded=0;orthogonalLoop=1;jettySize=auto;html=1;entryX=0.5;entryY=0;entryDx=0;entryDy=0;strokeWidth=1;strokeColor=#E67E80;exitX=0.5;exitY=1;exitDx=0;exitDy=0;fontFamily=LXGW WenKai Mono Medium;fontSize=12;fontColor=#5C6A72;align=center;verticalAlign=middle;endArrow=blockThin;endFill=1;" parent="1" source="9ZmwkrKqa4zjrhgP0yqL-122" target="9ZmwkrKqa4zjrhgP0yqL-125" edge="1">
          <mxGeometry relative="1" as="geometry">
            <mxPoint x="340" y="1630" as="sourcePoint" />
            <mxPoint x="170" y="1640" as="targetPoint" />
            <Array as="points" />
          </mxGeometry>
        </mxCell>
        <mxCell id="9ZmwkrKqa4zjrhgP0yqL-125" value="&lt;font&gt;configure&lt;/font&gt;" style="rounded=0;whiteSpace=wrap;html=1;strokeWidth=1;fillColor=#A7C080;strokeColor=#A7C080;perimeterSpacing=0;glass=0;shadow=0;fillStyle=solid;gradientColor=none;fillOpacity=50;fontFamily=LXGW WenKai Mono Medium;fontSize=12;fontColor=#5C6A72;align=center;verticalAlign=middle;" parent="1" vertex="1">
          <mxGeometry x="120" y="1560" width="100" height="20" as="geometry" />
        </mxCell>
        <mxCell id="9ZmwkrKqa4zjrhgP0yqL-127" style="edgeStyle=orthogonalEdgeStyle;rounded=0;orthogonalLoop=1;jettySize=auto;html=1;entryX=1;entryY=0.5;entryDx=0;entryDy=0;strokeWidth=1;strokeColor=#5C6A72;fontFamily=LXGW WenKai Mono Medium;fontSize=12;fontColor=#5C6A72;align=center;verticalAlign=middle;endArrow=blockThin;endFill=1;exitX=0;exitY=0.5;exitDx=0;exitDy=0;" parent="1" source="9ZmwkrKqa4zjrhgP0yqL-129" target="9ZmwkrKqa4zjrhgP0yqL-131" edge="1">
          <mxGeometry relative="1" as="geometry" />
        </mxCell>
        <mxCell id="9ZmwkrKqa4zjrhgP0yqL-129" value="&lt;font&gt;configure.ac&lt;/font&gt;" style="rounded=0;whiteSpace=wrap;html=1;strokeWidth=1;fillColor=none;strokeColor=#5C6A72;fontColor=#5C6A72;fillOpacity=50;fontFamily=LXGW WenKai Mono Medium;fontSize=12;align=center;verticalAlign=middle;" parent="1" vertex="1">
          <mxGeometry x="260" y="1720" width="100" height="20" as="geometry" />
        </mxCell>
        <mxCell id="9ZmwkrKqa4zjrhgP0yqL-130" style="edgeStyle=orthogonalEdgeStyle;rounded=0;orthogonalLoop=1;jettySize=auto;html=1;entryX=0.5;entryY=0;entryDx=0;entryDy=0;strokeWidth=1;strokeColor=#E67E80;fontFamily=LXGW WenKai Mono Medium;fontSize=12;fontColor=#5C6A72;align=center;verticalAlign=middle;endArrow=blockThin;endFill=1;" parent="1" source="9ZmwkrKqa4zjrhgP0yqL-131" target="9ZmwkrKqa4zjrhgP0yqL-135" edge="1">
          <mxGeometry relative="1" as="geometry" />
        </mxCell>
        <mxCell id="9ZmwkrKqa4zjrhgP0yqL-131" value="&lt;font&gt;aclocal&lt;/font&gt;" style="rounded=0;whiteSpace=wrap;html=1;strokeWidth=1;fillColor=#E67E80;strokeColor=#E67E80;perimeterSpacing=0;glass=0;shadow=0;fillStyle=solid;gradientColor=none;fillOpacity=50;fontFamily=LXGW WenKai Mono Medium;fontSize=12;fontColor=#5C6A72;align=center;verticalAlign=middle;" parent="1" vertex="1">
          <mxGeometry x="120" y="1720" width="100" height="20" as="geometry" />
        </mxCell>
        <mxCell id="9ZmwkrKqa4zjrhgP0yqL-132" value="&lt;font&gt;autoconf&lt;/font&gt;" style="rounded=0;whiteSpace=wrap;html=1;strokeWidth=1;fillColor=#E67E80;strokeColor=#E67E80;perimeterSpacing=0;glass=0;shadow=0;fillStyle=solid;gradientColor=none;fillOpacity=50;fontFamily=LXGW WenKai Mono Medium;fontSize=12;fontColor=#5C6A72;align=center;verticalAlign=middle;" parent="1" vertex="1">
          <mxGeometry x="120" y="1840" width="100" height="20" as="geometry" />
        </mxCell>
        <mxCell id="9ZmwkrKqa4zjrhgP0yqL-135" value="&lt;font&gt;aclocal.m4&lt;/font&gt;" style="rounded=0;whiteSpace=wrap;html=1;strokeWidth=1;fillColor=#7FBBB3;strokeColor=#7FBBB3;fontColor=#5C6A72;fillOpacity=50;fontFamily=LXGW WenKai Mono Medium;fontSize=12;align=center;verticalAlign=middle;" parent="1" vertex="1">
          <mxGeometry x="120" y="1780" width="100" height="20" as="geometry" />
        </mxCell>
        <mxCell id="9ZmwkrKqa4zjrhgP0yqL-136" value="" style="endArrow=blockThin;html=1;rounded=0;entryX=0.75;entryY=0;entryDx=0;entryDy=0;strokeWidth=1;strokeColor=#5C6A72;exitX=0.5;exitY=1;exitDx=0;exitDy=0;fontFamily=LXGW WenKai Mono Medium;fontSize=12;fontColor=#5C6A72;align=center;verticalAlign=middle;endFill=1;" parent="1" source="9ZmwkrKqa4zjrhgP0yqL-129" target="9ZmwkrKqa4zjrhgP0yqL-132" edge="1">
          <mxGeometry width="50" height="50" relative="1" as="geometry">
            <mxPoint x="290" y="1880" as="sourcePoint" />
            <mxPoint x="130" y="2010" as="targetPoint" />
            <Array as="points">
              <mxPoint x="310" y="1820" />
              <mxPoint x="195" y="1820" />
            </Array>
          </mxGeometry>
        </mxCell>
        <mxCell id="9ZmwkrKqa4zjrhgP0yqL-138" style="edgeStyle=orthogonalEdgeStyle;rounded=0;orthogonalLoop=1;jettySize=auto;html=1;entryX=0.5;entryY=0;entryDx=0;entryDy=0;strokeWidth=1;strokeColor=#E67E80;exitX=0.5;exitY=1;exitDx=0;exitDy=0;fontFamily=LXGW WenKai Mono Medium;fontSize=12;fontColor=#5C6A72;align=center;verticalAlign=middle;endArrow=blockThin;endFill=1;" parent="1" source="9ZmwkrKqa4zjrhgP0yqL-132" target="9ZmwkrKqa4zjrhgP0yqL-141" edge="1">
          <mxGeometry relative="1" as="geometry">
            <mxPoint x="340" y="1970" as="sourcePoint" />
            <mxPoint x="170" y="1979.9700000000003" as="targetPoint" />
            <Array as="points" />
          </mxGeometry>
        </mxCell>
        <mxCell id="9ZmwkrKqa4zjrhgP0yqL-139" value="" style="endArrow=blockThin;html=1;rounded=0;exitX=0.5;exitY=1;exitDx=0;exitDy=0;entryX=0.5;entryY=0;entryDx=0;entryDy=0;strokeColor=#7FBBB3;fontColor=#5C6A72;fontFamily=LXGW WenKai Mono Medium;fontSize=12;align=center;verticalAlign=middle;endFill=1;" parent="1" source="9ZmwkrKqa4zjrhgP0yqL-135" target="9ZmwkrKqa4zjrhgP0yqL-132" edge="1">
          <mxGeometry width="50" height="50" relative="1" as="geometry">
            <mxPoint x="240" y="1860" as="sourcePoint" />
            <mxPoint x="290" y="1810" as="targetPoint" />
          </mxGeometry>
        </mxCell>
        <mxCell id="9ZmwkrKqa4zjrhgP0yqL-141" value="&lt;font&gt;configure&lt;/font&gt;" style="rounded=0;whiteSpace=wrap;html=1;strokeWidth=1;fillColor=#A7C080;strokeColor=#A7C080;perimeterSpacing=0;glass=0;shadow=0;fillStyle=solid;gradientColor=none;fillOpacity=50;fontFamily=LXGW WenKai Mono Medium;fontSize=12;fontColor=#5C6A72;align=center;verticalAlign=middle;" parent="1" vertex="1">
          <mxGeometry x="120" y="1900" width="100" height="20" as="geometry" />
        </mxCell>
        <mxCell id="9ZmwkrKqa4zjrhgP0yqL-197" style="edgeStyle=orthogonalEdgeStyle;rounded=0;orthogonalLoop=1;jettySize=auto;html=1;entryX=0;entryY=0.5;entryDx=0;entryDy=0;strokeWidth=1;strokeColor=#E67E80;fontFamily=LXGW WenKai Mono Medium;fontSize=12;fontColor=#5C6A72;align=center;verticalAlign=middle;endArrow=blockThin;endFill=1;" parent="1" source="9ZmwkrKqa4zjrhgP0yqL-198" target="9ZmwkrKqa4zjrhgP0yqL-201" edge="1">
          <mxGeometry relative="1" as="geometry" />
        </mxCell>
        <mxCell id="9ZmwkrKqa4zjrhgP0yqL-198" value="&lt;font&gt;./configure&lt;/font&gt;" style="rounded=0;whiteSpace=wrap;html=1;strokeWidth=1;fillColor=#E67E80;strokeColor=#E67E80;perimeterSpacing=0;glass=0;shadow=0;fillStyle=solid;gradientColor=none;fillOpacity=50;fontFamily=LXGW WenKai Mono Medium;fontSize=12;fontColor=#5C6A72;align=center;verticalAlign=middle;" parent="1" vertex="1">
          <mxGeometry x="120" y="2279.9700000000003" width="100" height="20" as="geometry" />
        </mxCell>
        <mxCell id="9ZmwkrKqa4zjrhgP0yqL-200" style="edgeStyle=orthogonalEdgeStyle;rounded=0;orthogonalLoop=1;jettySize=auto;html=1;exitX=0.5;exitY=1;exitDx=0;exitDy=0;entryX=0.5;entryY=0;entryDx=0;entryDy=0;strokeWidth=1;strokeColor=#E67E80;fontFamily=LXGW WenKai Mono Medium;fontSize=12;fontColor=#5C6A72;align=center;verticalAlign=middle;endArrow=blockThin;endFill=1;" parent="1" source="9ZmwkrKqa4zjrhgP0yqL-201" target="9ZmwkrKqa4zjrhgP0yqL-223" edge="1">
          <mxGeometry relative="1" as="geometry">
            <Array as="points" />
            <mxPoint x="290" y="2409.9700000000003" as="targetPoint" />
          </mxGeometry>
        </mxCell>
        <mxCell id="9ZmwkrKqa4zjrhgP0yqL-201" value="&lt;font&gt;config.status&lt;/font&gt;" style="rounded=0;whiteSpace=wrap;html=1;strokeWidth=1;fillColor=#E67E80;strokeColor=#E67E80;fillOpacity=50;fontFamily=LXGW WenKai Mono Medium;fontSize=12;fontColor=#5C6A72;align=center;verticalAlign=middle;" parent="1" vertex="1">
          <mxGeometry x="260" y="2279.9700000000003" width="100" height="20" as="geometry" />
        </mxCell>
        <mxCell id="9ZmwkrKqa4zjrhgP0yqL-202" style="edgeStyle=orthogonalEdgeStyle;rounded=0;orthogonalLoop=1;jettySize=auto;html=1;entryX=0.5;entryY=0;entryDx=0;entryDy=0;strokeWidth=1;strokeColor=#5C6A72;fontFamily=LXGW WenKai Mono Medium;fontSize=12;exitX=0.5;exitY=1;exitDx=0;exitDy=0;fontColor=#5C6A72;align=center;verticalAlign=middle;endArrow=blockThin;endFill=1;" parent="1" source="9ZmwkrKqa4zjrhgP0yqL-221" target="9ZmwkrKqa4zjrhgP0yqL-201" edge="1">
          <mxGeometry relative="1" as="geometry">
            <Array as="points">
              <mxPoint x="310" y="2250" />
              <mxPoint x="310" y="2250" />
            </Array>
            <mxPoint x="290" y="2360" as="sourcePoint" />
          </mxGeometry>
        </mxCell>
        <mxCell id="9ZmwkrKqa4zjrhgP0yqL-206" style="edgeStyle=orthogonalEdgeStyle;rounded=0;orthogonalLoop=1;jettySize=auto;html=1;entryX=0.5;entryY=0;entryDx=0;entryDy=0;strokeWidth=1;strokeColor=#5C6A72;fontFamily=LXGW WenKai Mono Medium;fontSize=12;fontColor=#5C6A72;align=center;verticalAlign=middle;endArrow=blockThin;endFill=1;exitX=0;exitY=0.5;exitDx=0;exitDy=0;" parent="1" source="9ZmwkrKqa4zjrhgP0yqL-208" target="9ZmwkrKqa4zjrhgP0yqL-213" edge="1">
          <mxGeometry relative="1" as="geometry">
            <mxPoint x="220" y="2050" as="targetPoint" />
          </mxGeometry>
        </mxCell>
        <mxCell id="9ZmwkrKqa4zjrhgP0yqL-207" style="edgeStyle=orthogonalEdgeStyle;rounded=0;orthogonalLoop=1;jettySize=auto;html=1;entryX=0.5;entryY=0;entryDx=0;entryDy=0;strokeWidth=1;strokeColor=#5C6A72;fontFamily=LXGW WenKai Mono Medium;fontSize=12;fontColor=#5C6A72;align=center;verticalAlign=middle;endArrow=blockThin;endFill=1;" parent="1" source="9ZmwkrKqa4zjrhgP0yqL-208" target="9ZmwkrKqa4zjrhgP0yqL-215" edge="1">
          <mxGeometry relative="1" as="geometry" />
        </mxCell>
        <mxCell id="9ZmwkrKqa4zjrhgP0yqL-208" value="&lt;font&gt;configure.ac&lt;/font&gt;" style="rounded=0;whiteSpace=wrap;html=1;strokeWidth=1;fillColor=none;strokeColor=#5C6A72;fontColor=#5C6A72;fillOpacity=50;fontFamily=LXGW WenKai Mono Medium;fontSize=12;align=center;verticalAlign=middle;" parent="1" vertex="1">
          <mxGeometry x="260" y="2100" width="100" height="20" as="geometry" />
        </mxCell>
        <mxCell id="9ZmwkrKqa4zjrhgP0yqL-213" value="&lt;font&gt;autoconf&lt;/font&gt;" style="rounded=0;whiteSpace=wrap;html=1;strokeWidth=1;fillColor=#E67E80;strokeColor=#E67E80;perimeterSpacing=0;glass=0;shadow=0;fillStyle=solid;gradientColor=none;fillOpacity=50;fontFamily=LXGW WenKai Mono Medium;fontSize=12;fontColor=#5C6A72;align=center;verticalAlign=middle;" parent="1" vertex="1">
          <mxGeometry x="120" y="2160" width="100" height="20" as="geometry" />
        </mxCell>
        <mxCell id="9ZmwkrKqa4zjrhgP0yqL-214" style="edgeStyle=orthogonalEdgeStyle;rounded=0;orthogonalLoop=1;jettySize=auto;html=1;entryX=0.5;entryY=0;entryDx=0;entryDy=0;strokeWidth=1;strokeColor=#E67E80;fontFamily=LXGW WenKai Mono Medium;fontSize=12;fontColor=#5C6A72;align=center;verticalAlign=middle;endArrow=blockThin;endFill=1;" parent="1" source="9ZmwkrKqa4zjrhgP0yqL-215" target="9ZmwkrKqa4zjrhgP0yqL-221" edge="1">
          <mxGeometry relative="1" as="geometry">
            <mxPoint x="310" y="2320" as="targetPoint" />
          </mxGeometry>
        </mxCell>
        <mxCell id="9ZmwkrKqa4zjrhgP0yqL-215" value="&lt;font&gt;autoheader&lt;/font&gt;" style="rounded=0;whiteSpace=wrap;html=1;strokeWidth=1;fillColor=#E67E80;strokeColor=#E67E80;perimeterSpacing=0;glass=0;shadow=0;fillStyle=solid;gradientColor=none;fillOpacity=50;fontFamily=LXGW WenKai Mono Medium;fontSize=12;fontColor=#5C6A72;align=center;verticalAlign=middle;" parent="1" vertex="1">
          <mxGeometry x="260" y="2160" width="100" height="20" as="geometry" />
        </mxCell>
        <mxCell id="9ZmwkrKqa4zjrhgP0yqL-221" value="&lt;font&gt;config.h.in&lt;/font&gt;" style="rounded=0;whiteSpace=wrap;html=1;strokeWidth=1;fillColor=none;strokeColor=#5C6A72;fontColor=#5C6A72;fillOpacity=50;fontFamily=LXGW WenKai Mono Medium;fontSize=12;align=center;verticalAlign=middle;" parent="1" vertex="1">
          <mxGeometry x="260" y="2220" width="100" height="20" as="geometry" />
        </mxCell>
        <mxCell id="9ZmwkrKqa4zjrhgP0yqL-223" value="&lt;font&gt;config.h&lt;/font&gt;" style="rounded=0;whiteSpace=wrap;html=1;strokeWidth=1;fillColor=#A7C080;strokeColor=#A7C080;fontColor=#5C6A72;fillOpacity=50;fontFamily=LXGW WenKai Mono Medium;fontSize=12;align=center;verticalAlign=middle;" parent="1" vertex="1">
          <mxGeometry x="260" y="2340" width="100" height="20" as="geometry" />
        </mxCell>
        <mxCell id="9ZmwkrKqa4zjrhgP0yqL-226" style="edgeStyle=orthogonalEdgeStyle;rounded=0;orthogonalLoop=1;jettySize=auto;html=1;entryX=0.5;entryY=0;entryDx=0;entryDy=0;strokeWidth=1;strokeColor=#E67E80;exitX=0.5;exitY=1;exitDx=0;exitDy=0;fontFamily=LXGW WenKai Mono Medium;fontSize=12;fontColor=#5C6A72;align=center;verticalAlign=middle;endArrow=blockThin;endFill=1;" parent="1" source="9ZmwkrKqa4zjrhgP0yqL-213" target="9ZmwkrKqa4zjrhgP0yqL-198" edge="1">
          <mxGeometry relative="1" as="geometry">
            <mxPoint x="340" y="2290" as="sourcePoint" />
            <mxPoint x="340" y="2330" as="targetPoint" />
            <Array as="points">
              <mxPoint x="170" y="2250" />
              <mxPoint x="170" y="2250" />
            </Array>
          </mxGeometry>
        </mxCell>
        <mxCell id="9ZmwkrKqa4zjrhgP0yqL-232" style="edgeStyle=orthogonalEdgeStyle;rounded=0;orthogonalLoop=1;jettySize=auto;html=1;entryX=0;entryY=0.5;entryDx=0;entryDy=0;strokeWidth=1;strokeColor=#E67E80;fontFamily=LXGW WenKai Mono Medium;fontSize=12;fontColor=#5C6A72;align=center;verticalAlign=middle;endArrow=blockThin;endFill=1;" parent="1" source="9ZmwkrKqa4zjrhgP0yqL-233" target="9ZmwkrKqa4zjrhgP0yqL-238" edge="1">
          <mxGeometry relative="1" as="geometry" />
        </mxCell>
        <mxCell id="9ZmwkrKqa4zjrhgP0yqL-233" value="&lt;font&gt;./configure&lt;/font&gt;" style="rounded=0;whiteSpace=wrap;html=1;strokeWidth=1;fillColor=#E67E80;strokeColor=#E67E80;perimeterSpacing=0;glass=0;shadow=0;fillStyle=solid;gradientColor=none;fillOpacity=50;fontFamily=LXGW WenKai Mono Medium;fontSize=12;fontColor=#5C6A72;align=center;verticalAlign=middle;" parent="1" vertex="1">
          <mxGeometry x="120" y="2739.9700000000003" width="100" height="20" as="geometry" />
        </mxCell>
        <mxCell id="9ZmwkrKqa4zjrhgP0yqL-234" style="edgeStyle=orthogonalEdgeStyle;rounded=0;orthogonalLoop=1;jettySize=auto;html=1;exitX=1;exitY=0.5;exitDx=0;exitDy=0;entryX=0.25;entryY=0;entryDx=0;entryDy=0;strokeWidth=1;strokeColor=#E67E80;fontFamily=LXGW WenKai Mono Medium;fontSize=12;fontColor=#5C6A72;align=center;verticalAlign=middle;endArrow=blockThin;endFill=1;" parent="1" source="9ZmwkrKqa4zjrhgP0yqL-238" target="9ZmwkrKqa4zjrhgP0yqL-242" edge="1">
          <mxGeometry relative="1" as="geometry">
            <Array as="points">
              <mxPoint x="705" y="2750" />
            </Array>
          </mxGeometry>
        </mxCell>
        <mxCell id="9ZmwkrKqa4zjrhgP0yqL-235" style="edgeStyle=orthogonalEdgeStyle;rounded=0;orthogonalLoop=1;jettySize=auto;html=1;entryX=0.5;entryY=0;entryDx=0;entryDy=0;strokeWidth=1;strokeColor=#E67E80;fontFamily=LXGW WenKai Mono Medium;fontSize=12;fontColor=#5C6A72;align=center;verticalAlign=middle;endArrow=blockThin;endFill=1;" parent="1" source="9ZmwkrKqa4zjrhgP0yqL-238" target="9ZmwkrKqa4zjrhgP0yqL-271" edge="1">
          <mxGeometry relative="1" as="geometry">
            <mxPoint x="450" y="2849.9700000000003" as="targetPoint" />
          </mxGeometry>
        </mxCell>
        <mxCell id="9ZmwkrKqa4zjrhgP0yqL-236" style="edgeStyle=orthogonalEdgeStyle;rounded=0;orthogonalLoop=1;jettySize=auto;html=1;exitX=0.25;exitY=1;exitDx=0;exitDy=0;entryX=0.5;entryY=0;entryDx=0;entryDy=0;strokeWidth=1;strokeColor=#E67E80;fontFamily=LXGW WenKai Mono Medium;fontSize=12;fontColor=#5C6A72;align=center;verticalAlign=middle;endArrow=blockThin;endFill=1;" parent="1" source="9ZmwkrKqa4zjrhgP0yqL-238" target="9ZmwkrKqa4zjrhgP0yqL-267" edge="1">
          <mxGeometry relative="1" as="geometry">
            <Array as="points">
              <mxPoint x="425" y="2780" />
              <mxPoint x="310" y="2780" />
            </Array>
            <mxPoint x="290" y="2849.9700000000003" as="targetPoint" />
          </mxGeometry>
        </mxCell>
        <mxCell id="9ZmwkrKqa4zjrhgP0yqL-237" style="edgeStyle=orthogonalEdgeStyle;rounded=0;orthogonalLoop=1;jettySize=auto;html=1;exitX=0.75;exitY=1;exitDx=0;exitDy=0;entryX=0.5;entryY=0;entryDx=0;entryDy=0;strokeWidth=1;strokeColor=#E67E80;fontFamily=LXGW WenKai Mono Medium;fontSize=12;fontColor=#5C6A72;align=center;verticalAlign=middle;endArrow=blockThin;endFill=1;" parent="1" source="9ZmwkrKqa4zjrhgP0yqL-238" target="9ZmwkrKqa4zjrhgP0yqL-269" edge="1">
          <mxGeometry relative="1" as="geometry">
            <Array as="points">
              <mxPoint x="475" y="2780" />
              <mxPoint x="590" y="2780" />
            </Array>
            <mxPoint x="610" y="2849.9700000000003" as="targetPoint" />
          </mxGeometry>
        </mxCell>
        <mxCell id="9ZmwkrKqa4zjrhgP0yqL-238" value="&lt;font&gt;config.status&lt;/font&gt;" style="rounded=0;whiteSpace=wrap;html=1;strokeWidth=1;fillColor=#E67E80;strokeColor=#E67E80;fillOpacity=50;fontFamily=LXGW WenKai Mono Medium;fontSize=12;fontColor=#5C6A72;align=center;verticalAlign=middle;" parent="1" vertex="1">
          <mxGeometry x="400" y="2739.9700000000003" width="100" height="20" as="geometry" />
        </mxCell>
        <mxCell id="9ZmwkrKqa4zjrhgP0yqL-239" style="edgeStyle=orthogonalEdgeStyle;rounded=0;orthogonalLoop=1;jettySize=auto;html=1;entryX=0.25;entryY=0;entryDx=0;entryDy=0;strokeWidth=1;strokeColor=#5C6A72;fontFamily=LXGW WenKai Mono Medium;fontSize=12;exitX=0.5;exitY=1;exitDx=0;exitDy=0;fontColor=#5C6A72;align=center;verticalAlign=middle;endArrow=blockThin;endFill=1;" parent="1" source="9ZmwkrKqa4zjrhgP0yqL-263" target="9ZmwkrKqa4zjrhgP0yqL-238" edge="1">
          <mxGeometry relative="1" as="geometry">
            <Array as="points">
              <mxPoint x="310" y="2700" />
              <mxPoint x="425" y="2700" />
            </Array>
            <mxPoint x="290" y="2800" as="sourcePoint" />
          </mxGeometry>
        </mxCell>
        <mxCell id="9ZmwkrKqa4zjrhgP0yqL-240" style="edgeStyle=orthogonalEdgeStyle;rounded=0;orthogonalLoop=1;jettySize=auto;html=1;strokeWidth=1;strokeColor=#5C6A72;fontFamily=LXGW WenKai Mono Medium;fontSize=12;exitX=0.5;exitY=1;exitDx=0;exitDy=0;entryX=0.5;entryY=0;entryDx=0;entryDy=0;fontColor=#5C6A72;align=center;verticalAlign=middle;endArrow=blockThin;endFill=1;" parent="1" source="9ZmwkrKqa4zjrhgP0yqL-265" target="9ZmwkrKqa4zjrhgP0yqL-238" edge="1">
          <mxGeometry relative="1" as="geometry">
            <mxPoint x="450" y="2920" as="targetPoint" />
            <mxPoint x="450" y="2800" as="sourcePoint" />
          </mxGeometry>
        </mxCell>
        <mxCell id="9ZmwkrKqa4zjrhgP0yqL-241" style="edgeStyle=orthogonalEdgeStyle;rounded=0;orthogonalLoop=1;jettySize=auto;html=1;entryX=0.75;entryY=0;entryDx=0;entryDy=0;strokeWidth=1;strokeColor=#5C6A72;fontFamily=LXGW WenKai Mono Medium;fontSize=12;exitX=0.5;exitY=1;exitDx=0;exitDy=0;fontColor=#5C6A72;align=center;verticalAlign=middle;endArrow=blockThin;endFill=1;" parent="1" source="9ZmwkrKqa4zjrhgP0yqL-264" target="9ZmwkrKqa4zjrhgP0yqL-238" edge="1">
          <mxGeometry relative="1" as="geometry">
            <Array as="points">
              <mxPoint x="590" y="2700" />
              <mxPoint x="475" y="2700" />
            </Array>
            <mxPoint x="610" y="2800" as="sourcePoint" />
          </mxGeometry>
        </mxCell>
        <mxCell id="9ZmwkrKqa4zjrhgP0yqL-242" value="&lt;font&gt;config.log&lt;/font&gt;" style="rounded=0;whiteSpace=wrap;html=1;strokeWidth=1;fillColor=#7FBBB3;strokeColor=#7FBBB3;fontColor=#5C6A72;fillOpacity=50;fontFamily=LXGW WenKai Mono Medium;fontSize=12;align=center;verticalAlign=middle;" parent="1" vertex="1">
          <mxGeometry x="680" y="2800" width="100" height="20" as="geometry" />
        </mxCell>
        <mxCell id="9ZmwkrKqa4zjrhgP0yqL-243" style="edgeStyle=orthogonalEdgeStyle;rounded=0;orthogonalLoop=1;jettySize=auto;html=1;strokeWidth=1;strokeColor=#7FBBB3;fontFamily=LXGW WenKai Mono Medium;fontSize=12;fontColor=#5C6A72;align=center;verticalAlign=middle;endArrow=blockThin;endFill=1;entryX=0.75;entryY=1;entryDx=0;entryDy=0;exitX=0.75;exitY=0;exitDx=0;exitDy=0;" parent="1" source="9ZmwkrKqa4zjrhgP0yqL-244" target="9ZmwkrKqa4zjrhgP0yqL-233" edge="1">
          <mxGeometry relative="1" as="geometry">
            <Array as="points">
              <mxPoint x="195" y="2780" />
              <mxPoint x="195" y="2780" />
            </Array>
            <mxPoint x="269.97" y="2830" as="sourcePoint" />
            <mxPoint x="259.97" y="2930" as="targetPoint" />
          </mxGeometry>
        </mxCell>
        <mxCell id="9ZmwkrKqa4zjrhgP0yqL-244" value="&lt;font&gt;config.cache&lt;/font&gt;" style="rounded=0;whiteSpace=wrap;html=1;strokeWidth=1;fillColor=#7FBBB3;strokeColor=#7FBBB3;fontColor=#5C6A72;fillOpacity=50;fontFamily=LXGW WenKai Mono Medium;fontSize=12;align=center;verticalAlign=middle;" parent="1" vertex="1">
          <mxGeometry x="120" y="2800" width="100" height="20" as="geometry" />
        </mxCell>
        <mxCell id="9ZmwkrKqa4zjrhgP0yqL-245" style="edgeStyle=orthogonalEdgeStyle;rounded=0;orthogonalLoop=1;jettySize=auto;html=1;entryX=1;entryY=0.5;entryDx=0;entryDy=0;strokeWidth=1;strokeColor=#5C6A72;fontFamily=LXGW WenKai Mono Medium;fontSize=12;fontColor=#5C6A72;align=center;verticalAlign=middle;endArrow=blockThin;endFill=1;exitX=0;exitY=0.5;exitDx=0;exitDy=0;" parent="1" source="9ZmwkrKqa4zjrhgP0yqL-247" target="9ZmwkrKqa4zjrhgP0yqL-253" edge="1">
          <mxGeometry relative="1" as="geometry" />
        </mxCell>
        <mxCell id="9ZmwkrKqa4zjrhgP0yqL-246" style="edgeStyle=orthogonalEdgeStyle;rounded=0;orthogonalLoop=1;jettySize=auto;html=1;entryX=0.5;entryY=0;entryDx=0;entryDy=0;strokeWidth=1;strokeColor=#5C6A72;fontFamily=LXGW WenKai Mono Medium;fontSize=12;fontColor=#5C6A72;align=center;verticalAlign=middle;endArrow=blockThin;endFill=1;" parent="1" source="9ZmwkrKqa4zjrhgP0yqL-247" target="9ZmwkrKqa4zjrhgP0yqL-256" edge="1">
          <mxGeometry relative="1" as="geometry" />
        </mxCell>
        <mxCell id="9ZmwkrKqa4zjrhgP0yqL-247" value="&lt;font&gt;configure.ac&lt;/font&gt;" style="rounded=0;whiteSpace=wrap;html=1;strokeWidth=1;fillColor=none;strokeColor=#5C6A72;fontColor=#5C6A72;fillOpacity=50;fontFamily=LXGW WenKai Mono Medium;fontSize=12;align=center;verticalAlign=middle;" parent="1" vertex="1">
          <mxGeometry x="260" y="2480" width="100" height="20" as="geometry" />
        </mxCell>
        <mxCell id="9ZmwkrKqa4zjrhgP0yqL-248" style="edgeStyle=orthogonalEdgeStyle;rounded=0;orthogonalLoop=1;jettySize=auto;html=1;entryX=0.5;entryY=0;entryDx=0;entryDy=0;strokeWidth=1;strokeColor=#5C6A72;fontFamily=LXGW WenKai Mono Medium;fontSize=12;fontColor=#5C6A72;align=center;verticalAlign=middle;endArrow=blockThin;endFill=1;" parent="1" source="9ZmwkrKqa4zjrhgP0yqL-249" target="9ZmwkrKqa4zjrhgP0yqL-260" edge="1">
          <mxGeometry relative="1" as="geometry" />
        </mxCell>
        <mxCell id="9ZmwkrKqa4zjrhgP0yqL-249" value="&lt;font&gt;Makefile.am&lt;/font&gt;" style="rounded=0;whiteSpace=wrap;html=1;strokeWidth=1;fillColor=none;strokeColor=#5C6A72;fontColor=#5C6A72;fillOpacity=50;fontFamily=LXGW WenKai Mono Medium;fontSize=12;align=center;verticalAlign=middle;" parent="1" vertex="1">
          <mxGeometry x="400" y="2480" width="100" height="20" as="geometry" />
        </mxCell>
        <mxCell id="9ZmwkrKqa4zjrhgP0yqL-250" style="edgeStyle=orthogonalEdgeStyle;rounded=0;orthogonalLoop=1;jettySize=auto;html=1;entryX=0.75;entryY=0;entryDx=0;entryDy=0;strokeWidth=1;strokeColor=#5C6A72;fontFamily=LXGW WenKai Mono Medium;fontSize=12;fontColor=#5C6A72;align=center;verticalAlign=middle;endArrow=blockThin;endFill=1;" parent="1" source="9ZmwkrKqa4zjrhgP0yqL-251" target="9ZmwkrKqa4zjrhgP0yqL-260" edge="1">
          <mxGeometry relative="1" as="geometry">
            <Array as="points">
              <mxPoint x="590" y="2580" />
              <mxPoint x="475" y="2580" />
            </Array>
          </mxGeometry>
        </mxCell>
        <mxCell id="9ZmwkrKqa4zjrhgP0yqL-251" value="&lt;font&gt;src/Makefile.am&lt;/font&gt;" style="rounded=0;whiteSpace=wrap;html=1;strokeWidth=1;fillColor=none;strokeColor=#5C6A72;fontColor=#5C6A72;fillOpacity=50;fontFamily=LXGW WenKai Mono Medium;fontSize=12;align=center;verticalAlign=middle;" parent="1" vertex="1">
          <mxGeometry x="540" y="2480" width="100" height="20" as="geometry" />
        </mxCell>
        <mxCell id="9ZmwkrKqa4zjrhgP0yqL-252" style="edgeStyle=orthogonalEdgeStyle;rounded=0;orthogonalLoop=1;jettySize=auto;html=1;entryX=0.5;entryY=0;entryDx=0;entryDy=0;strokeWidth=1;strokeColor=#E67E80;fontFamily=LXGW WenKai Mono Medium;fontSize=12;fontColor=#5C6A72;align=center;verticalAlign=middle;endArrow=blockThin;endFill=1;" parent="1" source="9ZmwkrKqa4zjrhgP0yqL-253" target="9ZmwkrKqa4zjrhgP0yqL-257" edge="1">
          <mxGeometry relative="1" as="geometry" />
        </mxCell>
        <mxCell id="9ZmwkrKqa4zjrhgP0yqL-253" value="&lt;font&gt;aclocal&lt;/font&gt;" style="rounded=0;whiteSpace=wrap;html=1;strokeWidth=1;fillColor=#E67E80;strokeColor=#E67E80;perimeterSpacing=0;glass=0;shadow=0;fillStyle=solid;gradientColor=none;fillOpacity=50;fontFamily=LXGW WenKai Mono Medium;fontSize=12;fontColor=#5C6A72;align=center;verticalAlign=middle;" parent="1" vertex="1">
          <mxGeometry x="120" y="2480" width="100" height="20" as="geometry" />
        </mxCell>
        <mxCell id="9ZmwkrKqa4zjrhgP0yqL-254" value="&lt;font&gt;autoconf&lt;/font&gt;" style="rounded=0;whiteSpace=wrap;html=1;strokeWidth=1;fillColor=#E67E80;strokeColor=#E67E80;perimeterSpacing=0;glass=0;shadow=0;fillStyle=solid;gradientColor=none;fillOpacity=50;fontFamily=LXGW WenKai Mono Medium;fontSize=12;fontColor=#5C6A72;align=center;verticalAlign=middle;" parent="1" vertex="1">
          <mxGeometry x="120" y="2600" width="100" height="20" as="geometry" />
        </mxCell>
        <mxCell id="9ZmwkrKqa4zjrhgP0yqL-255" style="edgeStyle=orthogonalEdgeStyle;rounded=0;orthogonalLoop=1;jettySize=auto;html=1;entryX=0.5;entryY=0;entryDx=0;entryDy=0;strokeWidth=1;strokeColor=#E67E80;fontFamily=LXGW WenKai Mono Medium;fontSize=12;fontColor=#5C6A72;align=center;verticalAlign=middle;endArrow=blockThin;endFill=1;" parent="1" source="9ZmwkrKqa4zjrhgP0yqL-256" target="9ZmwkrKqa4zjrhgP0yqL-263" edge="1">
          <mxGeometry relative="1" as="geometry">
            <mxPoint x="310" y="2760" as="targetPoint" />
          </mxGeometry>
        </mxCell>
        <mxCell id="9ZmwkrKqa4zjrhgP0yqL-256" value="&lt;font&gt;autoheader&lt;/font&gt;" style="rounded=0;whiteSpace=wrap;html=1;strokeWidth=1;fillColor=#E67E80;strokeColor=#E67E80;perimeterSpacing=0;glass=0;shadow=0;fillStyle=solid;gradientColor=none;fillOpacity=50;fontFamily=LXGW WenKai Mono Medium;fontSize=12;fontColor=#5C6A72;align=center;verticalAlign=middle;" parent="1" vertex="1">
          <mxGeometry x="260" y="2600" width="100" height="20" as="geometry" />
        </mxCell>
        <mxCell id="9ZmwkrKqa4zjrhgP0yqL-257" value="&lt;font&gt;aclocal.m4&lt;/font&gt;" style="rounded=0;whiteSpace=wrap;html=1;strokeWidth=1;fillColor=#7FBBB3;strokeColor=#7FBBB3;fontColor=#5C6A72;fillOpacity=50;fontFamily=LXGW WenKai Mono Medium;fontSize=12;align=center;verticalAlign=middle;" parent="1" vertex="1">
          <mxGeometry x="120" y="2540" width="100" height="20" as="geometry" />
        </mxCell>
        <mxCell id="9ZmwkrKqa4zjrhgP0yqL-258" style="edgeStyle=orthogonalEdgeStyle;rounded=0;orthogonalLoop=1;jettySize=auto;html=1;entryX=0.5;entryY=0;entryDx=0;entryDy=0;strokeWidth=1;strokeColor=#E67E80;fontFamily=LXGW WenKai Mono Medium;fontSize=12;fontColor=#5C6A72;align=center;verticalAlign=middle;endArrow=blockThin;endFill=1;" parent="1" source="9ZmwkrKqa4zjrhgP0yqL-260" target="9ZmwkrKqa4zjrhgP0yqL-265" edge="1">
          <mxGeometry relative="1" as="geometry">
            <mxPoint x="450" y="2760" as="targetPoint" />
          </mxGeometry>
        </mxCell>
        <mxCell id="9ZmwkrKqa4zjrhgP0yqL-259" style="edgeStyle=orthogonalEdgeStyle;rounded=0;orthogonalLoop=1;jettySize=auto;html=1;entryX=0.5;entryY=0;entryDx=0;entryDy=0;strokeWidth=1;strokeColor=#E67E80;exitX=0.75;exitY=1;exitDx=0;exitDy=0;fontFamily=LXGW WenKai Mono Medium;fontSize=12;fontColor=#5C6A72;align=center;verticalAlign=middle;endArrow=blockThin;endFill=1;" parent="1" source="9ZmwkrKqa4zjrhgP0yqL-260" target="9ZmwkrKqa4zjrhgP0yqL-264" edge="1">
          <mxGeometry relative="1" as="geometry">
            <Array as="points">
              <mxPoint x="475" y="2640" />
              <mxPoint x="590" y="2640" />
            </Array>
            <mxPoint x="610" y="2760" as="targetPoint" />
          </mxGeometry>
        </mxCell>
        <mxCell id="9ZmwkrKqa4zjrhgP0yqL-260" value="&lt;font&gt;automake&lt;/font&gt;" style="rounded=0;whiteSpace=wrap;html=1;strokeWidth=1;fillColor=#E67E80;strokeColor=#E67E80;perimeterSpacing=0;glass=0;shadow=0;fillStyle=solid;gradientColor=none;fillOpacity=50;fontFamily=LXGW WenKai Mono Medium;fontSize=12;fontColor=#5C6A72;align=center;verticalAlign=middle;" parent="1" vertex="1">
          <mxGeometry x="400" y="2600" width="100" height="20" as="geometry" />
        </mxCell>
        <mxCell id="9ZmwkrKqa4zjrhgP0yqL-261" value="" style="endArrow=blockThin;html=1;rounded=0;entryX=0.75;entryY=0;entryDx=0;entryDy=0;strokeWidth=1;strokeColor=#5C6A72;exitX=0.25;exitY=1;exitDx=0;exitDy=0;fontFamily=LXGW WenKai Mono Medium;fontSize=12;fontColor=#5C6A72;align=center;verticalAlign=middle;endFill=1;" parent="1" source="9ZmwkrKqa4zjrhgP0yqL-247" target="9ZmwkrKqa4zjrhgP0yqL-254" edge="1">
          <mxGeometry width="50" height="50" relative="1" as="geometry">
            <mxPoint x="290" y="2640" as="sourcePoint" />
            <mxPoint x="130" y="2770" as="targetPoint" />
            <Array as="points">
              <mxPoint x="285" y="2580" />
              <mxPoint x="195" y="2580" />
            </Array>
          </mxGeometry>
        </mxCell>
        <mxCell id="9ZmwkrKqa4zjrhgP0yqL-262" value="" style="endArrow=blockThin;html=1;rounded=0;entryX=0.25;entryY=0;entryDx=0;entryDy=0;strokeWidth=1;strokeColor=#5C6A72;exitX=0.75;exitY=1;exitDx=0;exitDy=0;fontFamily=LXGW WenKai Mono Medium;fontSize=12;fontColor=#5C6A72;align=center;verticalAlign=middle;endFill=1;" parent="1" source="9ZmwkrKqa4zjrhgP0yqL-247" target="9ZmwkrKqa4zjrhgP0yqL-260" edge="1">
          <mxGeometry width="50" height="50" relative="1" as="geometry">
            <mxPoint x="290" y="2640" as="sourcePoint" />
            <mxPoint x="540" y="2660" as="targetPoint" />
            <Array as="points">
              <mxPoint x="335" y="2580" />
              <mxPoint x="425" y="2580" />
            </Array>
          </mxGeometry>
        </mxCell>
        <mxCell id="9ZmwkrKqa4zjrhgP0yqL-263" value="&lt;font&gt;config.h.in&lt;/font&gt;" style="rounded=0;whiteSpace=wrap;html=1;strokeWidth=1;fillColor=none;strokeColor=#5C6A72;fontColor=#5C6A72;fillOpacity=50;fontFamily=LXGW WenKai Mono Medium;fontSize=12;align=center;verticalAlign=middle;" parent="1" vertex="1">
          <mxGeometry x="260" y="2660" width="100" height="20" as="geometry" />
        </mxCell>
        <mxCell id="9ZmwkrKqa4zjrhgP0yqL-264" value="&lt;font style=&quot;line-height: 100%;&quot;&gt;src/Makefile.in&lt;/font&gt;" style="rounded=0;whiteSpace=wrap;html=1;strokeWidth=1;fillColor=none;strokeColor=#5C6A72;fontColor=#5C6A72;fillOpacity=50;fontFamily=LXGW WenKai Mono Medium;fontSize=12;align=center;verticalAlign=middle;" parent="1" vertex="1">
          <mxGeometry x="540" y="2660" width="100" height="20" as="geometry" />
        </mxCell>
        <mxCell id="9ZmwkrKqa4zjrhgP0yqL-265" value="&lt;font&gt;Makefile.in&lt;/font&gt;" style="rounded=0;whiteSpace=wrap;html=1;strokeWidth=1;fillColor=none;strokeColor=#5C6A72;fontColor=#5C6A72;fillOpacity=50;fontFamily=LXGW WenKai Mono Medium;fontSize=12;align=center;verticalAlign=middle;" parent="1" vertex="1">
          <mxGeometry x="400" y="2660" width="100" height="20" as="geometry" />
        </mxCell>
        <mxCell id="9ZmwkrKqa4zjrhgP0yqL-266" style="edgeStyle=orthogonalEdgeStyle;rounded=0;orthogonalLoop=1;jettySize=auto;html=1;entryX=0.25;entryY=0;entryDx=0;entryDy=0;strokeWidth=1;strokeColor=#5C6A72;fontFamily=LXGW WenKai Mono Medium;fontSize=12;exitX=0.5;exitY=1;exitDx=0;exitDy=0;fontColor=#5C6A72;align=center;verticalAlign=middle;endArrow=blockThin;endFill=1;" parent="1" source="9ZmwkrKqa4zjrhgP0yqL-267" target="9ZmwkrKqa4zjrhgP0yqL-279" edge="1">
          <mxGeometry relative="1" as="geometry">
            <Array as="points">
              <mxPoint x="310" y="2840" />
              <mxPoint x="425" y="2840" />
            </Array>
            <mxPoint x="300" y="2804.9700000000003" as="sourcePoint" />
            <mxPoint x="434.97" y="2934.9700000000003" as="targetPoint" />
          </mxGeometry>
        </mxCell>
        <mxCell id="9ZmwkrKqa4zjrhgP0yqL-267" value="&lt;font&gt;config.h&lt;/font&gt;" style="rounded=0;whiteSpace=wrap;html=1;strokeWidth=1;fillColor=none;strokeColor=#5C6A72;fontColor=#5C6A72;fillOpacity=50;fontFamily=LXGW WenKai Mono Medium;fontSize=12;align=center;verticalAlign=middle;" parent="1" vertex="1">
          <mxGeometry x="260" y="2800" width="100" height="20" as="geometry" />
        </mxCell>
        <mxCell id="9ZmwkrKqa4zjrhgP0yqL-268" style="edgeStyle=orthogonalEdgeStyle;rounded=0;orthogonalLoop=1;jettySize=auto;html=1;entryX=0.75;entryY=0;entryDx=0;entryDy=0;strokeWidth=1;strokeColor=#5C6A72;fontFamily=LXGW WenKai Mono Medium;fontSize=12;fontColor=#5C6A72;align=center;verticalAlign=middle;endArrow=blockThin;endFill=1;" parent="1" source="9ZmwkrKqa4zjrhgP0yqL-269" target="9ZmwkrKqa4zjrhgP0yqL-279" edge="1">
          <mxGeometry relative="1" as="geometry">
            <Array as="points">
              <mxPoint x="590" y="2840" />
              <mxPoint x="475" y="2840" />
            </Array>
          </mxGeometry>
        </mxCell>
        <mxCell id="9ZmwkrKqa4zjrhgP0yqL-269" value="&lt;font&gt;src/Makefile&lt;/font&gt;" style="rounded=0;whiteSpace=wrap;html=1;strokeWidth=1;fillColor=none;strokeColor=#5C6A72;fontColor=#5C6A72;fillOpacity=50;fontFamily=LXGW WenKai Mono Medium;fontSize=12;align=center;verticalAlign=middle;" parent="1" vertex="1">
          <mxGeometry x="540" y="2800" width="100" height="20" as="geometry" />
        </mxCell>
        <mxCell id="9ZmwkrKqa4zjrhgP0yqL-270" style="edgeStyle=orthogonalEdgeStyle;rounded=0;orthogonalLoop=1;jettySize=auto;html=1;entryX=0.5;entryY=0;entryDx=0;entryDy=0;strokeWidth=1;strokeColor=#5C6A72;fontFamily=LXGW WenKai Mono Medium;fontSize=12;fontColor=#5C6A72;align=center;verticalAlign=middle;endArrow=blockThin;endFill=1;" parent="1" source="9ZmwkrKqa4zjrhgP0yqL-271" target="9ZmwkrKqa4zjrhgP0yqL-279" edge="1">
          <mxGeometry relative="1" as="geometry" />
        </mxCell>
        <mxCell id="9ZmwkrKqa4zjrhgP0yqL-271" value="&lt;font&gt;Makefile&lt;/font&gt;" style="rounded=0;whiteSpace=wrap;html=1;strokeWidth=1;fillColor=none;strokeColor=#5C6A72;fontColor=#5C6A72;fillOpacity=50;fontFamily=LXGW WenKai Mono Medium;fontSize=12;align=center;verticalAlign=middle;" parent="1" vertex="1">
          <mxGeometry x="400" y="2800" width="100" height="20" as="geometry" />
        </mxCell>
        <mxCell id="9ZmwkrKqa4zjrhgP0yqL-272" style="edgeStyle=orthogonalEdgeStyle;rounded=0;orthogonalLoop=1;jettySize=auto;html=1;exitX=0.25;exitY=1;exitDx=0;exitDy=0;strokeWidth=1;strokeColor=#E67E80;fontFamily=LXGW WenKai Mono Medium;fontSize=12;fontColor=#5C6A72;align=center;verticalAlign=middle;endArrow=blockThin;endFill=1;entryX=0.25;entryY=0;entryDx=0;entryDy=0;" parent="1" source="9ZmwkrKqa4zjrhgP0yqL-233" target="9ZmwkrKqa4zjrhgP0yqL-244" edge="1">
          <mxGeometry relative="1" as="geometry">
            <Array as="points" />
            <mxPoint x="105" y="2749.9400000000005" as="sourcePoint" />
            <mxPoint x="100" y="2850" as="targetPoint" />
          </mxGeometry>
        </mxCell>
        <mxCell id="9ZmwkrKqa4zjrhgP0yqL-273" style="edgeStyle=orthogonalEdgeStyle;rounded=0;orthogonalLoop=1;jettySize=auto;html=1;entryX=0.5;entryY=0;entryDx=0;entryDy=0;strokeWidth=1;strokeColor=#E67E80;exitX=0.5;exitY=1;exitDx=0;exitDy=0;fontFamily=LXGW WenKai Mono Medium;fontSize=12;fontColor=#5C6A72;align=center;verticalAlign=middle;endArrow=blockThin;endFill=1;" parent="1" source="9ZmwkrKqa4zjrhgP0yqL-254" target="9ZmwkrKqa4zjrhgP0yqL-233" edge="1">
          <mxGeometry relative="1" as="geometry">
            <mxPoint x="340" y="2730" as="sourcePoint" />
            <mxPoint x="340" y="2770" as="targetPoint" />
            <Array as="points">
              <mxPoint x="170" y="2690" />
              <mxPoint x="170" y="2690" />
            </Array>
          </mxGeometry>
        </mxCell>
        <mxCell id="9ZmwkrKqa4zjrhgP0yqL-278" style="edgeStyle=orthogonalEdgeStyle;rounded=0;orthogonalLoop=1;jettySize=auto;html=1;entryX=0.5;entryY=0;entryDx=0;entryDy=0;strokeWidth=1;strokeColor=#E67E80;fontFamily=LXGW WenKai Mono Medium;fontSize=12;fontColor=#5C6A72;align=center;verticalAlign=middle;endArrow=blockThin;endFill=1;" parent="1" source="9ZmwkrKqa4zjrhgP0yqL-279" target="9ZmwkrKqa4zjrhgP0yqL-280" edge="1">
          <mxGeometry relative="1" as="geometry" />
        </mxCell>
        <mxCell id="9ZmwkrKqa4zjrhgP0yqL-279" value="&lt;font style=&quot;line-height: 100%;&quot;&gt;make&lt;/font&gt;" style="rounded=0;whiteSpace=wrap;html=1;strokeWidth=1;fillColor=#E67E80;strokeColor=#E67E80;perimeterSpacing=0;glass=0;shadow=0;fillStyle=solid;gradientColor=none;fillOpacity=50;fontFamily=LXGW WenKai Mono Medium;fontSize=12;fontColor=#5C6A72;align=center;verticalAlign=middle;" parent="1" vertex="1">
          <mxGeometry x="400" y="2860" width="100" height="20" as="geometry" />
        </mxCell>
        <mxCell id="9ZmwkrKqa4zjrhgP0yqL-280" value="&lt;font&gt;&lt;span style=&quot;line-height: 100%;&quot;&gt;executable&lt;/span&gt;&lt;/font&gt;" style="rounded=0;whiteSpace=wrap;html=1;strokeWidth=1;fillColor=#A7C080;strokeColor=#A7C080;fontColor=#5C6A72;fillOpacity=50;fontFamily=LXGW WenKai Mono Medium;fontSize=12;align=center;verticalAlign=middle;" parent="1" vertex="1">
          <mxGeometry x="400" y="2920" width="100" height="20" as="geometry" />
        </mxCell>
        <mxCell id="9ZmwkrKqa4zjrhgP0yqL-281" value="" style="endArrow=blockThin;html=1;rounded=0;exitX=0.5;exitY=1;exitDx=0;exitDy=0;entryX=0.5;entryY=0;entryDx=0;entryDy=0;strokeColor=#7FBBB3;fontColor=#5C6A72;fontFamily=LXGW WenKai Mono Medium;fontSize=12;align=center;verticalAlign=middle;endFill=1;" parent="1" source="9ZmwkrKqa4zjrhgP0yqL-257" target="9ZmwkrKqa4zjrhgP0yqL-254" edge="1">
          <mxGeometry width="50" height="50" relative="1" as="geometry">
            <mxPoint x="240" y="2620" as="sourcePoint" />
            <mxPoint x="290" y="2570" as="targetPoint" />
          </mxGeometry>
        </mxCell>
        <mxCell id="9ZmwkrKqa4zjrhgP0yqL-282" style="edgeStyle=orthogonalEdgeStyle;rounded=0;orthogonalLoop=1;jettySize=auto;html=1;exitX=0.75;exitY=0;exitDx=0;exitDy=0;entryX=0.75;entryY=0;entryDx=0;entryDy=0;strokeWidth=1;strokeColor=#E67E80;fontFamily=LXGW WenKai Mono Medium;fontSize=12;fontColor=#5C6A72;align=center;verticalAlign=middle;endArrow=blockThin;endFill=1;" parent="1" source="9ZmwkrKqa4zjrhgP0yqL-233" target="9ZmwkrKqa4zjrhgP0yqL-242" edge="1">
          <mxGeometry relative="1" as="geometry">
            <Array as="points">
              <mxPoint x="195" y="2720" />
              <mxPoint x="755" y="2720" />
            </Array>
          </mxGeometry>
        </mxCell>
        <mxCell id="CSXKb2e_C_K2BSgl5yH9-1" style="edgeStyle=orthogonalEdgeStyle;rounded=0;orthogonalLoop=1;jettySize=auto;html=1;entryX=0;entryY=0.5;entryDx=0;entryDy=0;strokeWidth=1;strokeColor=#E67E80;fontFamily=LXGW WenKai Mono;fontSize=17;fontColor=#5C6A72;align=center;verticalAlign=middle;endArrow=blockThin;endFill=1;" parent="1" source="CSXKb2e_C_K2BSgl5yH9-2" target="CSXKb2e_C_K2BSgl5yH9-7" edge="1">
          <mxGeometry relative="1" as="geometry" />
        </mxCell>
        <mxCell id="CSXKb2e_C_K2BSgl5yH9-2" value="&lt;font&gt;./configure&lt;/font&gt;" style="rounded=0;whiteSpace=wrap;html=1;strokeWidth=1;fillColor=#E67E80;strokeColor=#E67E80;perimeterSpacing=0;glass=0;shadow=0;fillStyle=solid;gradientColor=none;fillOpacity=50;fontFamily=LXGW WenKai Mono;fontSize=17;fontColor=#5C6A72;align=center;verticalAlign=middle;" parent="1" vertex="1">
          <mxGeometry x="880" y="720" width="140" height="30" as="geometry" />
        </mxCell>
        <mxCell id="CSXKb2e_C_K2BSgl5yH9-3" style="edgeStyle=orthogonalEdgeStyle;rounded=0;orthogonalLoop=1;jettySize=auto;html=1;exitX=1;exitY=0.5;exitDx=0;exitDy=0;entryX=0.25;entryY=0;entryDx=0;entryDy=0;strokeWidth=1;strokeColor=#E67E80;fontFamily=LXGW WenKai Mono;fontSize=17;fontColor=#5C6A72;align=center;verticalAlign=middle;endArrow=blockThin;endFill=1;" parent="1" source="CSXKb2e_C_K2BSgl5yH9-7" target="CSXKb2e_C_K2BSgl5yH9-11" edge="1">
          <mxGeometry relative="1" as="geometry">
            <Array as="points">
              <mxPoint x="1715" y="735" />
            </Array>
          </mxGeometry>
        </mxCell>
        <mxCell id="CSXKb2e_C_K2BSgl5yH9-4" style="edgeStyle=orthogonalEdgeStyle;rounded=0;orthogonalLoop=1;jettySize=auto;html=1;entryX=0.5;entryY=0;entryDx=0;entryDy=0;strokeWidth=1;strokeColor=#E67E80;fontFamily=LXGW WenKai Mono;fontSize=17;fontColor=#5C6A72;align=center;verticalAlign=middle;endArrow=blockThin;endFill=1;" parent="1" source="CSXKb2e_C_K2BSgl5yH9-7" target="CSXKb2e_C_K2BSgl5yH9-40" edge="1">
          <mxGeometry relative="1" as="geometry">
            <mxPoint x="1290" y="879.97" as="targetPoint" />
          </mxGeometry>
        </mxCell>
        <mxCell id="CSXKb2e_C_K2BSgl5yH9-5" style="edgeStyle=orthogonalEdgeStyle;rounded=0;orthogonalLoop=1;jettySize=auto;html=1;exitX=0.25;exitY=1;exitDx=0;exitDy=0;entryX=0.5;entryY=0;entryDx=0;entryDy=0;strokeWidth=1;strokeColor=#E67E80;fontFamily=LXGW WenKai Mono;fontSize=17;fontColor=#5C6A72;align=center;verticalAlign=middle;endArrow=blockThin;endFill=1;" parent="1" source="CSXKb2e_C_K2BSgl5yH9-7" target="CSXKb2e_C_K2BSgl5yH9-36" edge="1">
          <mxGeometry relative="1" as="geometry">
            <Array as="points">
              <mxPoint x="1315" y="780" />
              <mxPoint x="1150" y="780" />
            </Array>
            <mxPoint x="1130" y="879.97" as="targetPoint" />
          </mxGeometry>
        </mxCell>
        <mxCell id="CSXKb2e_C_K2BSgl5yH9-6" style="edgeStyle=orthogonalEdgeStyle;rounded=0;orthogonalLoop=1;jettySize=auto;html=1;exitX=0.75;exitY=1;exitDx=0;exitDy=0;entryX=0.5;entryY=0;entryDx=0;entryDy=0;strokeWidth=1;strokeColor=#E67E80;fontFamily=LXGW WenKai Mono;fontSize=17;fontColor=#5C6A72;align=center;verticalAlign=middle;endArrow=blockThin;endFill=1;" parent="1" source="CSXKb2e_C_K2BSgl5yH9-7" target="CSXKb2e_C_K2BSgl5yH9-38" edge="1">
          <mxGeometry relative="1" as="geometry">
            <Array as="points">
              <mxPoint x="1385" y="780" />
              <mxPoint x="1550" y="780" />
            </Array>
            <mxPoint x="1450" y="879.97" as="targetPoint" />
          </mxGeometry>
        </mxCell>
        <mxCell id="CSXKb2e_C_K2BSgl5yH9-7" value="&lt;font&gt;config.status&lt;/font&gt;" style="rounded=0;whiteSpace=wrap;html=1;strokeWidth=1;fillColor=#E67E80;strokeColor=#E67E80;fillOpacity=50;fontFamily=LXGW WenKai Mono;fontSize=17;fontColor=#5C6A72;align=center;verticalAlign=middle;" parent="1" vertex="1">
          <mxGeometry x="1280" y="720" width="140" height="30" as="geometry" />
        </mxCell>
        <mxCell id="CSXKb2e_C_K2BSgl5yH9-8" style="edgeStyle=orthogonalEdgeStyle;rounded=0;orthogonalLoop=1;jettySize=auto;html=1;entryX=0.25;entryY=0;entryDx=0;entryDy=0;strokeWidth=1;strokeColor=#5C6A72;fontFamily=LXGW WenKai Mono;fontSize=17;exitX=0.5;exitY=1;exitDx=0;exitDy=0;fontColor=#5C6A72;align=center;verticalAlign=middle;endArrow=blockThin;endFill=1;" parent="1" source="CSXKb2e_C_K2BSgl5yH9-32" target="CSXKb2e_C_K2BSgl5yH9-7" edge="1">
          <mxGeometry relative="1" as="geometry">
            <Array as="points">
              <mxPoint x="1150" y="660" />
              <mxPoint x="1315" y="660" />
            </Array>
            <mxPoint x="1130" y="830" as="sourcePoint" />
          </mxGeometry>
        </mxCell>
        <mxCell id="CSXKb2e_C_K2BSgl5yH9-9" style="edgeStyle=orthogonalEdgeStyle;rounded=0;orthogonalLoop=1;jettySize=auto;html=1;strokeWidth=1;strokeColor=#5C6A72;fontFamily=LXGW WenKai Mono;fontSize=17;exitX=0.5;exitY=1;exitDx=0;exitDy=0;entryX=0.5;entryY=0;entryDx=0;entryDy=0;fontColor=#5C6A72;align=center;verticalAlign=middle;endArrow=blockThin;endFill=1;" parent="1" source="CSXKb2e_C_K2BSgl5yH9-34" target="CSXKb2e_C_K2BSgl5yH9-7" edge="1">
          <mxGeometry relative="1" as="geometry">
            <mxPoint x="1290" y="950" as="targetPoint" />
            <mxPoint x="1290" y="830" as="sourcePoint" />
          </mxGeometry>
        </mxCell>
        <mxCell id="CSXKb2e_C_K2BSgl5yH9-10" style="edgeStyle=orthogonalEdgeStyle;rounded=0;orthogonalLoop=1;jettySize=auto;html=1;entryX=0.75;entryY=0;entryDx=0;entryDy=0;strokeWidth=1;strokeColor=#5C6A72;fontFamily=LXGW WenKai Mono;fontSize=17;exitX=0.5;exitY=1;exitDx=0;exitDy=0;fontColor=#5C6A72;align=center;verticalAlign=middle;endArrow=blockThin;endFill=1;" parent="1" source="CSXKb2e_C_K2BSgl5yH9-33" target="CSXKb2e_C_K2BSgl5yH9-7" edge="1">
          <mxGeometry relative="1" as="geometry">
            <Array as="points">
              <mxPoint x="1550" y="660" />
              <mxPoint x="1385" y="660" />
            </Array>
            <mxPoint x="1450" y="830" as="sourcePoint" />
          </mxGeometry>
        </mxCell>
        <mxCell id="CSXKb2e_C_K2BSgl5yH9-11" value="&lt;font&gt;config.log&lt;/font&gt;" style="rounded=0;whiteSpace=wrap;html=1;strokeWidth=1;fillColor=#7FBBB3;strokeColor=#7FBBB3;fontColor=#5C6A72;fillOpacity=50;fontFamily=LXGW WenKai Mono;fontSize=17;align=center;verticalAlign=middle;" parent="1" vertex="1">
          <mxGeometry x="1680" y="810" width="140" height="30" as="geometry" />
        </mxCell>
        <mxCell id="CSXKb2e_C_K2BSgl5yH9-12" style="edgeStyle=orthogonalEdgeStyle;rounded=0;orthogonalLoop=1;jettySize=auto;html=1;strokeWidth=1;strokeColor=#7FBBB3;fontFamily=LXGW WenKai Mono;fontSize=17;fontColor=#5C6A72;align=center;verticalAlign=middle;endArrow=blockThin;endFill=1;entryX=0.75;entryY=1;entryDx=0;entryDy=0;exitX=0.75;exitY=0;exitDx=0;exitDy=0;" parent="1" source="CSXKb2e_C_K2BSgl5yH9-13" target="CSXKb2e_C_K2BSgl5yH9-2" edge="1">
          <mxGeometry relative="1" as="geometry">
            <Array as="points">
              <mxPoint x="985" y="790" />
              <mxPoint x="985" y="790" />
            </Array>
            <mxPoint x="1109.97" y="860" as="sourcePoint" />
            <mxPoint x="1099.97" y="960" as="targetPoint" />
          </mxGeometry>
        </mxCell>
        <mxCell id="CSXKb2e_C_K2BSgl5yH9-13" value="&lt;font&gt;config.cache&lt;/font&gt;" style="rounded=0;whiteSpace=wrap;html=1;strokeWidth=1;fillColor=#7FBBB3;strokeColor=#7FBBB3;fontColor=#5C6A72;fillOpacity=50;fontFamily=LXGW WenKai Mono;fontSize=17;align=center;verticalAlign=middle;" parent="1" vertex="1">
          <mxGeometry x="880" y="810" width="140" height="30" as="geometry" />
        </mxCell>
        <mxCell id="CSXKb2e_C_K2BSgl5yH9-14" style="edgeStyle=orthogonalEdgeStyle;rounded=0;orthogonalLoop=1;jettySize=auto;html=1;entryX=1;entryY=0.5;entryDx=0;entryDy=0;strokeWidth=1;strokeColor=#5C6A72;fontFamily=LXGW WenKai Mono;fontSize=17;fontColor=#5C6A72;align=center;verticalAlign=middle;endArrow=blockThin;endFill=1;exitX=0;exitY=0.5;exitDx=0;exitDy=0;" parent="1" source="CSXKb2e_C_K2BSgl5yH9-16" target="CSXKb2e_C_K2BSgl5yH9-22" edge="1">
          <mxGeometry relative="1" as="geometry" />
        </mxCell>
        <mxCell id="CSXKb2e_C_K2BSgl5yH9-15" style="edgeStyle=orthogonalEdgeStyle;rounded=0;orthogonalLoop=1;jettySize=auto;html=1;entryX=0.5;entryY=0;entryDx=0;entryDy=0;strokeWidth=1;strokeColor=#5C6A72;fontFamily=LXGW WenKai Mono;fontSize=17;fontColor=#5C6A72;align=center;verticalAlign=middle;endArrow=blockThin;endFill=1;" parent="1" source="CSXKb2e_C_K2BSgl5yH9-16" target="CSXKb2e_C_K2BSgl5yH9-25" edge="1">
          <mxGeometry relative="1" as="geometry" />
        </mxCell>
        <mxCell id="CSXKb2e_C_K2BSgl5yH9-16" value="&lt;font&gt;configure.ac&lt;/font&gt;" style="rounded=0;whiteSpace=wrap;html=1;strokeWidth=1;fillColor=none;strokeColor=#5C6A72;fontColor=#5C6A72;fillOpacity=50;fontFamily=LXGW WenKai Mono;fontSize=17;align=center;verticalAlign=middle;" parent="1" vertex="1">
          <mxGeometry x="1080" y="330" width="140" height="30" as="geometry" />
        </mxCell>
        <mxCell id="CSXKb2e_C_K2BSgl5yH9-17" style="edgeStyle=orthogonalEdgeStyle;rounded=0;orthogonalLoop=1;jettySize=auto;html=1;entryX=0.5;entryY=0;entryDx=0;entryDy=0;strokeWidth=1;strokeColor=#5C6A72;fontFamily=LXGW WenKai Mono;fontSize=17;fontColor=#5C6A72;align=center;verticalAlign=middle;endArrow=blockThin;endFill=1;" parent="1" source="CSXKb2e_C_K2BSgl5yH9-18" target="CSXKb2e_C_K2BSgl5yH9-29" edge="1">
          <mxGeometry relative="1" as="geometry">
            <Array as="points">
              <mxPoint x="1350" y="490" />
              <mxPoint x="1350" y="490" />
            </Array>
          </mxGeometry>
        </mxCell>
        <mxCell id="CSXKb2e_C_K2BSgl5yH9-18" value="&lt;font&gt;Makefile.am&lt;/font&gt;" style="rounded=0;whiteSpace=wrap;html=1;strokeWidth=1;fillColor=none;strokeColor=#5C6A72;fontColor=#5C6A72;fillOpacity=50;fontFamily=LXGW WenKai Mono;fontSize=17;align=center;verticalAlign=middle;" parent="1" vertex="1">
          <mxGeometry x="1280" y="330" width="140" height="30" as="geometry" />
        </mxCell>
        <mxCell id="CSXKb2e_C_K2BSgl5yH9-19" style="edgeStyle=orthogonalEdgeStyle;rounded=0;orthogonalLoop=1;jettySize=auto;html=1;entryX=0.75;entryY=0;entryDx=0;entryDy=0;strokeWidth=1;strokeColor=#5C6A72;fontFamily=LXGW WenKai Mono;fontSize=17;fontColor=#5C6A72;align=center;verticalAlign=middle;endArrow=blockThin;endFill=1;" parent="1" source="CSXKb2e_C_K2BSgl5yH9-20" target="CSXKb2e_C_K2BSgl5yH9-29" edge="1">
          <mxGeometry relative="1" as="geometry">
            <Array as="points">
              <mxPoint x="1550" y="480" />
              <mxPoint x="1385" y="480" />
            </Array>
          </mxGeometry>
        </mxCell>
        <mxCell id="CSXKb2e_C_K2BSgl5yH9-20" value="&lt;font&gt;src/Makefile.am&lt;/font&gt;" style="rounded=0;whiteSpace=wrap;html=1;strokeWidth=1;fillColor=none;strokeColor=#5C6A72;fontColor=#5C6A72;fillOpacity=50;fontFamily=LXGW WenKai Mono;fontSize=17;align=center;verticalAlign=middle;" parent="1" vertex="1">
          <mxGeometry x="1480" y="330" width="140" height="30" as="geometry" />
        </mxCell>
        <mxCell id="CSXKb2e_C_K2BSgl5yH9-21" style="edgeStyle=orthogonalEdgeStyle;rounded=0;orthogonalLoop=1;jettySize=auto;html=1;entryX=0.5;entryY=0;entryDx=0;entryDy=0;strokeWidth=1;strokeColor=#E67E80;fontFamily=LXGW WenKai Mono;fontSize=17;fontColor=#5C6A72;align=center;verticalAlign=middle;endArrow=blockThin;endFill=1;" parent="1" source="CSXKb2e_C_K2BSgl5yH9-22" target="CSXKb2e_C_K2BSgl5yH9-26" edge="1">
          <mxGeometry relative="1" as="geometry" />
        </mxCell>
        <mxCell id="CSXKb2e_C_K2BSgl5yH9-22" value="&lt;font&gt;aclocal&lt;/font&gt;" style="rounded=0;whiteSpace=wrap;html=1;strokeWidth=1;fillColor=#E67E80;strokeColor=#E67E80;perimeterSpacing=0;glass=0;shadow=0;fillStyle=solid;gradientColor=none;fillOpacity=50;fontFamily=LXGW WenKai Mono;fontSize=17;fontColor=#5C6A72;align=center;verticalAlign=middle;" parent="1" vertex="1">
          <mxGeometry x="880" y="330" width="140" height="30" as="geometry" />
        </mxCell>
        <mxCell id="CSXKb2e_C_K2BSgl5yH9-23" value="&lt;font&gt;autoconf&lt;/font&gt;" style="rounded=0;whiteSpace=wrap;html=1;strokeWidth=1;fillColor=#E67E80;strokeColor=#E67E80;perimeterSpacing=0;glass=0;shadow=0;fillStyle=solid;gradientColor=none;fillOpacity=50;fontFamily=LXGW WenKai Mono;fontSize=17;fontColor=#5C6A72;align=center;verticalAlign=middle;" parent="1" vertex="1">
          <mxGeometry x="880" y="510" width="140" height="30" as="geometry" />
        </mxCell>
        <mxCell id="CSXKb2e_C_K2BSgl5yH9-24" style="edgeStyle=orthogonalEdgeStyle;rounded=0;orthogonalLoop=1;jettySize=auto;html=1;entryX=0.5;entryY=0;entryDx=0;entryDy=0;strokeWidth=1;strokeColor=#E67E80;fontFamily=LXGW WenKai Mono;fontSize=17;fontColor=#5C6A72;align=center;verticalAlign=middle;endArrow=blockThin;endFill=1;" parent="1" source="CSXKb2e_C_K2BSgl5yH9-25" target="CSXKb2e_C_K2BSgl5yH9-32" edge="1">
          <mxGeometry relative="1" as="geometry">
            <mxPoint x="1150" y="790" as="targetPoint" />
          </mxGeometry>
        </mxCell>
        <mxCell id="CSXKb2e_C_K2BSgl5yH9-25" value="&lt;font&gt;autoheader&lt;/font&gt;" style="rounded=0;whiteSpace=wrap;html=1;strokeWidth=1;fillColor=#E67E80;strokeColor=#E67E80;perimeterSpacing=0;glass=0;shadow=0;fillStyle=solid;gradientColor=none;fillOpacity=50;fontFamily=LXGW WenKai Mono;fontSize=17;fontColor=#5C6A72;align=center;verticalAlign=middle;" parent="1" vertex="1">
          <mxGeometry x="1080" y="510" width="140" height="30" as="geometry" />
        </mxCell>
        <mxCell id="CSXKb2e_C_K2BSgl5yH9-26" value="&lt;font&gt;aclocal.m4&lt;/font&gt;" style="rounded=0;whiteSpace=wrap;html=1;strokeWidth=1;fillColor=#7FBBB3;strokeColor=#7FBBB3;fontColor=#5C6A72;fillOpacity=50;fontFamily=LXGW WenKai Mono;fontSize=17;align=center;verticalAlign=middle;" parent="1" vertex="1">
          <mxGeometry x="880" y="420" width="140" height="30" as="geometry" />
        </mxCell>
        <mxCell id="CSXKb2e_C_K2BSgl5yH9-27" style="edgeStyle=orthogonalEdgeStyle;rounded=0;orthogonalLoop=1;jettySize=auto;html=1;entryX=0.5;entryY=0;entryDx=0;entryDy=0;strokeWidth=1;strokeColor=#E67E80;fontFamily=LXGW WenKai Mono;fontSize=17;fontColor=#5C6A72;align=center;verticalAlign=middle;endArrow=blockThin;endFill=1;" parent="1" source="CSXKb2e_C_K2BSgl5yH9-29" target="CSXKb2e_C_K2BSgl5yH9-34" edge="1">
          <mxGeometry relative="1" as="geometry">
            <mxPoint x="1290" y="790" as="targetPoint" />
          </mxGeometry>
        </mxCell>
        <mxCell id="CSXKb2e_C_K2BSgl5yH9-28" style="edgeStyle=orthogonalEdgeStyle;rounded=0;orthogonalLoop=1;jettySize=auto;html=1;entryX=0.5;entryY=0;entryDx=0;entryDy=0;strokeWidth=1;strokeColor=#E67E80;exitX=0.75;exitY=1;exitDx=0;exitDy=0;fontFamily=LXGW WenKai Mono;fontSize=17;fontColor=#5C6A72;align=center;verticalAlign=middle;endArrow=blockThin;endFill=1;" parent="1" source="CSXKb2e_C_K2BSgl5yH9-29" target="CSXKb2e_C_K2BSgl5yH9-33" edge="1">
          <mxGeometry relative="1" as="geometry">
            <Array as="points">
              <mxPoint x="1385" y="570" />
              <mxPoint x="1550" y="570" />
            </Array>
            <mxPoint x="1585" y="690" as="targetPoint" />
            <mxPoint x="1540" y="540" as="sourcePoint" />
          </mxGeometry>
        </mxCell>
        <mxCell id="CSXKb2e_C_K2BSgl5yH9-29" value="&lt;font&gt;automake&lt;/font&gt;" style="rounded=0;whiteSpace=wrap;html=1;strokeWidth=1;fillColor=#E67E80;strokeColor=#E67E80;perimeterSpacing=0;glass=0;shadow=0;fillStyle=solid;gradientColor=none;fillOpacity=50;fontFamily=LXGW WenKai Mono;fontSize=17;fontColor=#5C6A72;align=center;verticalAlign=middle;" parent="1" vertex="1">
          <mxGeometry x="1280" y="510" width="140" height="30" as="geometry" />
        </mxCell>
        <mxCell id="CSXKb2e_C_K2BSgl5yH9-30" value="" style="endArrow=blockThin;html=1;rounded=0;entryX=0.75;entryY=0;entryDx=0;entryDy=0;strokeWidth=1;strokeColor=#5C6A72;exitX=0.25;exitY=1;exitDx=0;exitDy=0;fontFamily=LXGW WenKai Mono;fontSize=17;fontColor=#5C6A72;align=center;verticalAlign=middle;endFill=1;" parent="1" source="CSXKb2e_C_K2BSgl5yH9-16" target="CSXKb2e_C_K2BSgl5yH9-23" edge="1">
          <mxGeometry width="50" height="50" relative="1" as="geometry">
            <mxPoint x="1130" y="670" as="sourcePoint" />
            <mxPoint x="970" y="800" as="targetPoint" />
            <Array as="points">
              <mxPoint x="1115" y="480" />
              <mxPoint x="985" y="480" />
            </Array>
          </mxGeometry>
        </mxCell>
        <mxCell id="CSXKb2e_C_K2BSgl5yH9-31" value="" style="endArrow=blockThin;html=1;rounded=0;entryX=0.25;entryY=0;entryDx=0;entryDy=0;strokeWidth=1;strokeColor=#5C6A72;exitX=0.75;exitY=1;exitDx=0;exitDy=0;fontFamily=LXGW WenKai Mono;fontSize=17;fontColor=#5C6A72;align=center;verticalAlign=middle;endFill=1;" parent="1" source="CSXKb2e_C_K2BSgl5yH9-16" target="CSXKb2e_C_K2BSgl5yH9-29" edge="1">
          <mxGeometry width="50" height="50" relative="1" as="geometry">
            <mxPoint x="1130" y="670" as="sourcePoint" />
            <mxPoint x="1380" y="690" as="targetPoint" />
            <Array as="points">
              <mxPoint x="1185" y="480" />
              <mxPoint x="1315" y="480" />
            </Array>
          </mxGeometry>
        </mxCell>
        <mxCell id="CSXKb2e_C_K2BSgl5yH9-32" value="&lt;font&gt;config.h.in&lt;/font&gt;" style="rounded=0;whiteSpace=wrap;html=1;strokeWidth=1;fillColor=none;strokeColor=#5C6A72;fontColor=#5C6A72;fillOpacity=50;fontFamily=LXGW WenKai Mono;fontSize=17;align=center;verticalAlign=middle;" parent="1" vertex="1">
          <mxGeometry x="1080" y="600" width="140" height="30" as="geometry" />
        </mxCell>
        <mxCell id="CSXKb2e_C_K2BSgl5yH9-33" value="&lt;font style=&quot;line-height: 100%;&quot;&gt;src/Makefile.in&lt;/font&gt;" style="rounded=0;whiteSpace=wrap;html=1;strokeWidth=1;fillColor=none;strokeColor=#5C6A72;fontColor=#5C6A72;fillOpacity=50;fontFamily=LXGW WenKai Mono;fontSize=17;align=center;verticalAlign=middle;" parent="1" vertex="1">
          <mxGeometry x="1480" y="600" width="140" height="30" as="geometry" />
        </mxCell>
        <mxCell id="CSXKb2e_C_K2BSgl5yH9-34" value="&lt;font&gt;Makefile.in&lt;/font&gt;" style="rounded=0;whiteSpace=wrap;html=1;strokeWidth=1;fillColor=none;strokeColor=#5C6A72;fontColor=#5C6A72;fillOpacity=50;fontFamily=LXGW WenKai Mono;fontSize=17;align=center;verticalAlign=middle;" parent="1" vertex="1">
          <mxGeometry x="1280" y="600" width="140" height="30" as="geometry" />
        </mxCell>
        <mxCell id="CSXKb2e_C_K2BSgl5yH9-35" style="edgeStyle=orthogonalEdgeStyle;rounded=0;orthogonalLoop=1;jettySize=auto;html=1;entryX=0.25;entryY=0;entryDx=0;entryDy=0;strokeWidth=1;strokeColor=#5C6A72;fontFamily=LXGW WenKai Mono;fontSize=17;exitX=0.5;exitY=1;exitDx=0;exitDy=0;fontColor=#5C6A72;align=center;verticalAlign=middle;endArrow=blockThin;endFill=1;" parent="1" source="CSXKb2e_C_K2BSgl5yH9-36" target="CSXKb2e_C_K2BSgl5yH9-48" edge="1">
          <mxGeometry relative="1" as="geometry">
            <Array as="points">
              <mxPoint x="1150" y="870" />
              <mxPoint x="1315" y="870" />
            </Array>
            <mxPoint x="1140" y="834.97" as="sourcePoint" />
            <mxPoint x="1274.97" y="964.97" as="targetPoint" />
          </mxGeometry>
        </mxCell>
        <mxCell id="CSXKb2e_C_K2BSgl5yH9-36" value="&lt;font&gt;config.h&lt;/font&gt;" style="rounded=0;whiteSpace=wrap;html=1;strokeWidth=1;fillColor=none;strokeColor=#5C6A72;fontColor=#5C6A72;fillOpacity=50;fontFamily=LXGW WenKai Mono;fontSize=17;align=center;verticalAlign=middle;" parent="1" vertex="1">
          <mxGeometry x="1080" y="810" width="140" height="30" as="geometry" />
        </mxCell>
        <mxCell id="CSXKb2e_C_K2BSgl5yH9-37" style="edgeStyle=orthogonalEdgeStyle;rounded=0;orthogonalLoop=1;jettySize=auto;html=1;entryX=0.75;entryY=0;entryDx=0;entryDy=0;strokeWidth=1;strokeColor=#5C6A72;fontFamily=LXGW WenKai Mono;fontSize=17;fontColor=#5C6A72;align=center;verticalAlign=middle;endArrow=blockThin;endFill=1;" parent="1" source="CSXKb2e_C_K2BSgl5yH9-38" target="CSXKb2e_C_K2BSgl5yH9-48" edge="1">
          <mxGeometry relative="1" as="geometry">
            <Array as="points">
              <mxPoint x="1550" y="870" />
              <mxPoint x="1385" y="870" />
            </Array>
          </mxGeometry>
        </mxCell>
        <mxCell id="CSXKb2e_C_K2BSgl5yH9-38" value="&lt;font&gt;src/Makefile&lt;/font&gt;" style="rounded=0;whiteSpace=wrap;html=1;strokeWidth=1;fillColor=none;strokeColor=#5C6A72;fontColor=#5C6A72;fillOpacity=50;fontFamily=LXGW WenKai Mono;fontSize=17;align=center;verticalAlign=middle;" parent="1" vertex="1">
          <mxGeometry x="1480" y="810" width="140" height="30" as="geometry" />
        </mxCell>
        <mxCell id="CSXKb2e_C_K2BSgl5yH9-39" style="edgeStyle=orthogonalEdgeStyle;rounded=0;orthogonalLoop=1;jettySize=auto;html=1;entryX=0.5;entryY=0;entryDx=0;entryDy=0;strokeWidth=1;strokeColor=#5C6A72;fontFamily=LXGW WenKai Mono;fontSize=17;fontColor=#5C6A72;align=center;verticalAlign=middle;endArrow=blockThin;endFill=1;" parent="1" source="CSXKb2e_C_K2BSgl5yH9-40" target="CSXKb2e_C_K2BSgl5yH9-48" edge="1">
          <mxGeometry relative="1" as="geometry" />
        </mxCell>
        <mxCell id="CSXKb2e_C_K2BSgl5yH9-40" value="&lt;font&gt;Makefile&lt;/font&gt;" style="rounded=0;whiteSpace=wrap;html=1;strokeWidth=1;fillColor=none;strokeColor=#5C6A72;fontColor=#5C6A72;fillOpacity=50;fontFamily=LXGW WenKai Mono;fontSize=17;align=center;verticalAlign=middle;" parent="1" vertex="1">
          <mxGeometry x="1280" y="810" width="140" height="30" as="geometry" />
        </mxCell>
        <mxCell id="CSXKb2e_C_K2BSgl5yH9-41" style="edgeStyle=orthogonalEdgeStyle;rounded=0;orthogonalLoop=1;jettySize=auto;html=1;exitX=0.25;exitY=1;exitDx=0;exitDy=0;strokeWidth=1;strokeColor=#E67E80;fontFamily=LXGW WenKai Mono;fontSize=17;fontColor=#5C6A72;align=center;verticalAlign=middle;endArrow=blockThin;endFill=1;entryX=0.25;entryY=0;entryDx=0;entryDy=0;" parent="1" source="CSXKb2e_C_K2BSgl5yH9-2" target="CSXKb2e_C_K2BSgl5yH9-13" edge="1">
          <mxGeometry relative="1" as="geometry">
            <Array as="points" />
            <mxPoint x="945" y="779.9400000000003" as="sourcePoint" />
            <mxPoint x="940" y="880" as="targetPoint" />
          </mxGeometry>
        </mxCell>
        <mxCell id="CSXKb2e_C_K2BSgl5yH9-42" style="edgeStyle=orthogonalEdgeStyle;rounded=0;orthogonalLoop=1;jettySize=auto;html=1;entryX=0.5;entryY=0;entryDx=0;entryDy=0;strokeWidth=1;strokeColor=#E67E80;exitX=0.5;exitY=1;exitDx=0;exitDy=0;fontFamily=LXGW WenKai Mono;fontSize=17;fontColor=#5C6A72;align=center;verticalAlign=middle;endArrow=blockThin;endFill=1;" parent="1" source="CSXKb2e_C_K2BSgl5yH9-23" target="CSXKb2e_C_K2BSgl5yH9-2" edge="1">
          <mxGeometry relative="1" as="geometry">
            <mxPoint x="1180" y="760" as="sourcePoint" />
            <mxPoint x="1180" y="800" as="targetPoint" />
            <Array as="points">
              <mxPoint x="950" y="590" />
              <mxPoint x="950" y="590" />
            </Array>
          </mxGeometry>
        </mxCell>
        <mxCell id="CSXKb2e_C_K2BSgl5yH9-43" style="edgeStyle=orthogonalEdgeStyle;rounded=0;orthogonalLoop=1;jettySize=auto;html=1;entryX=0.5;entryY=0;entryDx=0;entryDy=0;strokeColor=#E67E80;strokeWidth=1;fontFamily=LXGW WenKai Mono;fontSize=17;fontColor=#5C6A72;align=center;verticalAlign=middle;endArrow=blockThin;endFill=1;" parent="1" source="CSXKb2e_C_K2BSgl5yH9-44" target="CSXKb2e_C_K2BSgl5yH9-46" edge="1">
          <mxGeometry relative="1" as="geometry" />
        </mxCell>
        <mxCell id="CSXKb2e_C_K2BSgl5yH9-44" value="&lt;font&gt;autoscan&lt;/font&gt;" style="rounded=0;whiteSpace=wrap;html=1;strokeWidth=1;fillColor=#E67E80;strokeColor=#E67E80;perimeterSpacing=0;glass=0;shadow=0;fillStyle=solid;gradientColor=none;fillOpacity=50;fontFamily=LXGW WenKai Mono;fontSize=17;fontColor=#5C6A72;align=center;verticalAlign=middle;" parent="1" vertex="1">
          <mxGeometry x="1080" y="150" width="140" height="30" as="geometry" />
        </mxCell>
        <mxCell id="CSXKb2e_C_K2BSgl5yH9-45" style="edgeStyle=orthogonalEdgeStyle;rounded=0;orthogonalLoop=1;jettySize=auto;html=1;entryX=0.5;entryY=0;entryDx=0;entryDy=0;strokeColor=#5C6A72;strokeWidth=1;fontFamily=LXGW WenKai Mono;fontSize=17;fontColor=#5C6A72;align=center;verticalAlign=middle;endArrow=blockThin;endFill=1;exitX=0.5;exitY=1;exitDx=0;exitDy=0;" parent="1" source="CSXKb2e_C_K2BSgl5yH9-46" target="CSXKb2e_C_K2BSgl5yH9-16" edge="1">
          <mxGeometry relative="1" as="geometry">
            <Array as="points" />
          </mxGeometry>
        </mxCell>
        <mxCell id="CSXKb2e_C_K2BSgl5yH9-46" value="&lt;font&gt;configure.scan&lt;/font&gt;" style="rounded=0;whiteSpace=wrap;html=1;strokeWidth=1;fillColor=none;strokeColor=#5C6A72;fontColor=#5C6A72;fillOpacity=50;fontFamily=LXGW WenKai Mono;fontSize=17;align=center;verticalAlign=middle;" parent="1" vertex="1">
          <mxGeometry x="1080" y="240" width="140" height="30" as="geometry" />
        </mxCell>
        <mxCell id="CSXKb2e_C_K2BSgl5yH9-47" style="edgeStyle=orthogonalEdgeStyle;rounded=0;orthogonalLoop=1;jettySize=auto;html=1;entryX=0.5;entryY=0;entryDx=0;entryDy=0;strokeWidth=1;strokeColor=#E67E80;fontFamily=LXGW WenKai Mono;fontSize=17;fontColor=#5C6A72;align=center;verticalAlign=middle;endArrow=blockThin;endFill=1;" parent="1" source="CSXKb2e_C_K2BSgl5yH9-48" target="CSXKb2e_C_K2BSgl5yH9-49" edge="1">
          <mxGeometry relative="1" as="geometry" />
        </mxCell>
        <mxCell id="CSXKb2e_C_K2BSgl5yH9-48" value="&lt;font style=&quot;line-height: 100%;&quot;&gt;make&lt;/font&gt;" style="rounded=0;whiteSpace=wrap;html=1;strokeWidth=1;fillColor=#E67E80;strokeColor=#E67E80;perimeterSpacing=0;glass=0;shadow=0;fillStyle=solid;gradientColor=none;fillOpacity=50;fontFamily=LXGW WenKai Mono;fontSize=17;fontColor=#5C6A72;align=center;verticalAlign=middle;" parent="1" vertex="1">
          <mxGeometry x="1280" y="900" width="140" height="30" as="geometry" />
        </mxCell>
        <mxCell id="CSXKb2e_C_K2BSgl5yH9-49" value="&lt;font&gt;&lt;span style=&quot;line-height: 100%;&quot;&gt;executable&lt;/span&gt;&lt;/font&gt;" style="rounded=0;whiteSpace=wrap;html=1;strokeWidth=1;fillColor=#A7C080;strokeColor=#A7C080;fontColor=#5C6A72;fillOpacity=50;fontFamily=LXGW WenKai Mono;fontSize=17;align=center;verticalAlign=middle;" parent="1" vertex="1">
          <mxGeometry x="1280" y="990" width="140" height="30" as="geometry" />
        </mxCell>
        <mxCell id="CSXKb2e_C_K2BSgl5yH9-50" value="" style="endArrow=blockThin;html=1;rounded=0;exitX=0.5;exitY=1;exitDx=0;exitDy=0;entryX=0.5;entryY=0;entryDx=0;entryDy=0;strokeColor=#7FBBB3;fontColor=#5C6A72;fontFamily=LXGW WenKai Mono;fontSize=17;align=center;verticalAlign=middle;endFill=1;" parent="1" source="CSXKb2e_C_K2BSgl5yH9-26" target="CSXKb2e_C_K2BSgl5yH9-23" edge="1">
          <mxGeometry width="50" height="50" relative="1" as="geometry">
            <mxPoint x="1080" y="650" as="sourcePoint" />
            <mxPoint x="1130" y="600" as="targetPoint" />
          </mxGeometry>
        </mxCell>
        <mxCell id="CSXKb2e_C_K2BSgl5yH9-52" value="&lt;font&gt;configure.scan&lt;/font&gt;" style="rounded=0;whiteSpace=wrap;html=1;strokeWidth=1;fillColor=#e1d5e7;strokeColor=#9673a6;fillOpacity=50;fontFamily=LXGW WenKai Mono;fontSize=15;align=center;verticalAlign=middle;" parent="1" vertex="1">
          <mxGeometry x="880" width="1140" height="60" as="geometry" />
        </mxCell>
        <mxCell id="CSXKb2e_C_K2BSgl5yH9-56" style="edgeStyle=orthogonalEdgeStyle;rounded=0;orthogonalLoop=1;jettySize=auto;html=1;exitX=0.75;exitY=0;exitDx=0;exitDy=0;entryX=0.75;entryY=0;entryDx=0;entryDy=0;strokeWidth=1;strokeColor=#E67E80;fontFamily=LXGW WenKai Mono;fontSize=17;fontColor=#5C6A72;align=center;verticalAlign=middle;endArrow=blockThin;endFill=1;" parent="1" source="CSXKb2e_C_K2BSgl5yH9-58" target="CSXKb2e_C_K2BSgl5yH9-67" edge="1">
          <mxGeometry relative="1" as="geometry">
            <Array as="points">
              <mxPoint x="985" y="1250" />
              <mxPoint x="1785" y="1250" />
            </Array>
          </mxGeometry>
        </mxCell>
        <mxCell id="CSXKb2e_C_K2BSgl5yH9-57" style="edgeStyle=orthogonalEdgeStyle;rounded=0;orthogonalLoop=1;jettySize=auto;html=1;entryX=0;entryY=0.5;entryDx=0;entryDy=0;strokeWidth=1;strokeColor=#E67E80;fontFamily=LXGW WenKai Mono;fontSize=17;fontColor=#5C6A72;align=center;verticalAlign=middle;endArrow=blockThin;endFill=1;" parent="1" source="CSXKb2e_C_K2BSgl5yH9-58" target="CSXKb2e_C_K2BSgl5yH9-63" edge="1">
          <mxGeometry relative="1" as="geometry" />
        </mxCell>
        <mxCell id="CSXKb2e_C_K2BSgl5yH9-58" value="&lt;font&gt;./configure&lt;/font&gt;" style="rounded=0;whiteSpace=wrap;html=1;strokeWidth=1;fillColor=#E67E80;strokeColor=#E67E80;perimeterSpacing=0;glass=0;shadow=0;fillStyle=solid;gradientColor=none;fillOpacity=50;fontFamily=LXGW WenKai Mono;fontSize=17;fontColor=#5C6A72;align=center;verticalAlign=middle;" parent="1" vertex="1">
          <mxGeometry x="880" y="1280" width="140" height="30" as="geometry" />
        </mxCell>
        <mxCell id="CSXKb2e_C_K2BSgl5yH9-59" style="edgeStyle=orthogonalEdgeStyle;rounded=0;orthogonalLoop=1;jettySize=auto;html=1;exitX=1;exitY=0.5;exitDx=0;exitDy=0;entryX=0.25;entryY=0;entryDx=0;entryDy=0;strokeWidth=1;strokeColor=#E67E80;fontFamily=LXGW WenKai Mono;fontSize=17;fontColor=#5C6A72;align=center;verticalAlign=middle;endArrow=blockThin;endFill=1;" parent="1" source="CSXKb2e_C_K2BSgl5yH9-63" target="CSXKb2e_C_K2BSgl5yH9-67" edge="1">
          <mxGeometry relative="1" as="geometry">
            <Array as="points">
              <mxPoint x="1715" y="1295" />
            </Array>
          </mxGeometry>
        </mxCell>
        <mxCell id="CSXKb2e_C_K2BSgl5yH9-60" style="edgeStyle=orthogonalEdgeStyle;rounded=0;orthogonalLoop=1;jettySize=auto;html=1;entryX=0.5;entryY=0;entryDx=0;entryDy=0;strokeWidth=1;strokeColor=#E67E80;fontFamily=LXGW WenKai Mono;fontSize=17;fontColor=#5C6A72;align=center;verticalAlign=middle;endArrow=blockThin;endFill=1;" parent="1" source="CSXKb2e_C_K2BSgl5yH9-63" target="CSXKb2e_C_K2BSgl5yH9-75" edge="1">
          <mxGeometry relative="1" as="geometry">
            <mxPoint x="1290" y="1439.97" as="targetPoint" />
          </mxGeometry>
        </mxCell>
        <mxCell id="CSXKb2e_C_K2BSgl5yH9-61" style="edgeStyle=orthogonalEdgeStyle;rounded=0;orthogonalLoop=1;jettySize=auto;html=1;exitX=0.25;exitY=1;exitDx=0;exitDy=0;entryX=0.5;entryY=0;entryDx=0;entryDy=0;strokeWidth=1;strokeColor=#E67E80;fontFamily=LXGW WenKai Mono;fontSize=17;fontColor=#5C6A72;align=center;verticalAlign=middle;endArrow=blockThin;endFill=1;" parent="1" source="CSXKb2e_C_K2BSgl5yH9-63" target="CSXKb2e_C_K2BSgl5yH9-73" edge="1">
          <mxGeometry relative="1" as="geometry">
            <Array as="points">
              <mxPoint x="1315" y="1340" />
              <mxPoint x="1150" y="1340" />
            </Array>
            <mxPoint x="1130" y="1439.97" as="targetPoint" />
          </mxGeometry>
        </mxCell>
        <mxCell id="CSXKb2e_C_K2BSgl5yH9-62" style="edgeStyle=orthogonalEdgeStyle;rounded=0;orthogonalLoop=1;jettySize=auto;html=1;exitX=0.75;exitY=1;exitDx=0;exitDy=0;entryX=0.5;entryY=0;entryDx=0;entryDy=0;strokeWidth=1;strokeColor=#E67E80;fontFamily=LXGW WenKai Mono;fontSize=17;fontColor=#5C6A72;align=center;verticalAlign=middle;endArrow=blockThin;endFill=1;" parent="1" source="CSXKb2e_C_K2BSgl5yH9-63" target="CSXKb2e_C_K2BSgl5yH9-74" edge="1">
          <mxGeometry relative="1" as="geometry">
            <Array as="points">
              <mxPoint x="1385" y="1340" />
              <mxPoint x="1550" y="1340" />
            </Array>
            <mxPoint x="1450" y="1439.97" as="targetPoint" />
          </mxGeometry>
        </mxCell>
        <mxCell id="CSXKb2e_C_K2BSgl5yH9-63" value="&lt;font&gt;config.status&lt;/font&gt;" style="rounded=0;whiteSpace=wrap;html=1;strokeWidth=1;fillColor=#E67E80;strokeColor=#E67E80;fillOpacity=50;fontFamily=LXGW WenKai Mono;fontSize=17;fontColor=#5C6A72;align=center;verticalAlign=middle;" parent="1" vertex="1">
          <mxGeometry x="1280" y="1280" width="140" height="30" as="geometry" />
        </mxCell>
        <mxCell id="CSXKb2e_C_K2BSgl5yH9-64" style="edgeStyle=orthogonalEdgeStyle;rounded=0;orthogonalLoop=1;jettySize=auto;html=1;entryX=0.25;entryY=0;entryDx=0;entryDy=0;strokeWidth=1;strokeColor=#5C6A72;fontFamily=LXGW WenKai Mono;fontSize=17;exitX=0.5;exitY=1;exitDx=0;exitDy=0;fontColor=#5C6A72;align=center;verticalAlign=middle;endArrow=blockThin;endFill=1;" parent="1" source="CSXKb2e_C_K2BSgl5yH9-70" target="CSXKb2e_C_K2BSgl5yH9-63" edge="1">
          <mxGeometry relative="1" as="geometry">
            <Array as="points">
              <mxPoint x="1150" y="1220" />
              <mxPoint x="1315" y="1220" />
            </Array>
            <mxPoint x="1130" y="1390" as="sourcePoint" />
          </mxGeometry>
        </mxCell>
        <mxCell id="CSXKb2e_C_K2BSgl5yH9-65" style="edgeStyle=orthogonalEdgeStyle;rounded=0;orthogonalLoop=1;jettySize=auto;html=1;strokeWidth=1;strokeColor=#5C6A72;fontFamily=LXGW WenKai Mono;fontSize=17;exitX=0.5;exitY=1;exitDx=0;exitDy=0;entryX=0.5;entryY=0;entryDx=0;entryDy=0;fontColor=#5C6A72;align=center;verticalAlign=middle;endArrow=blockThin;endFill=1;" parent="1" source="CSXKb2e_C_K2BSgl5yH9-72" target="CSXKb2e_C_K2BSgl5yH9-63" edge="1">
          <mxGeometry relative="1" as="geometry">
            <mxPoint x="1290" y="1510" as="targetPoint" />
            <mxPoint x="1290" y="1390" as="sourcePoint" />
          </mxGeometry>
        </mxCell>
        <mxCell id="CSXKb2e_C_K2BSgl5yH9-66" style="edgeStyle=orthogonalEdgeStyle;rounded=0;orthogonalLoop=1;jettySize=auto;html=1;entryX=0.75;entryY=0;entryDx=0;entryDy=0;strokeWidth=1;strokeColor=#5C6A72;fontFamily=LXGW WenKai Mono;fontSize=17;exitX=0.5;exitY=1;exitDx=0;exitDy=0;fontColor=#5C6A72;align=center;verticalAlign=middle;endArrow=blockThin;endFill=1;" parent="1" source="CSXKb2e_C_K2BSgl5yH9-71" target="CSXKb2e_C_K2BSgl5yH9-63" edge="1">
          <mxGeometry relative="1" as="geometry">
            <Array as="points">
              <mxPoint x="1550" y="1220" />
              <mxPoint x="1385" y="1220" />
            </Array>
            <mxPoint x="1450" y="1390" as="sourcePoint" />
          </mxGeometry>
        </mxCell>
        <mxCell id="CSXKb2e_C_K2BSgl5yH9-67" value="&lt;font&gt;config.log&lt;/font&gt;" style="rounded=0;whiteSpace=wrap;html=1;strokeWidth=1;fillColor=#7FBBB3;strokeColor=#7FBBB3;fontColor=#5C6A72;fillOpacity=50;fontFamily=LXGW WenKai Mono;fontSize=17;align=center;verticalAlign=middle;" parent="1" vertex="1">
          <mxGeometry x="1680" y="1370" width="140" height="30" as="geometry" />
        </mxCell>
        <mxCell id="CSXKb2e_C_K2BSgl5yH9-68" style="edgeStyle=orthogonalEdgeStyle;rounded=0;orthogonalLoop=1;jettySize=auto;html=1;strokeWidth=1;strokeColor=#7FBBB3;fontFamily=LXGW WenKai Mono;fontSize=17;fontColor=#5C6A72;align=center;verticalAlign=middle;endArrow=blockThin;endFill=1;entryX=0.75;entryY=1;entryDx=0;entryDy=0;exitX=0.75;exitY=0;exitDx=0;exitDy=0;" parent="1" source="CSXKb2e_C_K2BSgl5yH9-69" target="CSXKb2e_C_K2BSgl5yH9-58" edge="1">
          <mxGeometry relative="1" as="geometry">
            <Array as="points">
              <mxPoint x="985" y="1350" />
              <mxPoint x="985" y="1350" />
            </Array>
            <mxPoint x="1109.97" y="1420" as="sourcePoint" />
            <mxPoint x="1099.97" y="1520" as="targetPoint" />
          </mxGeometry>
        </mxCell>
        <mxCell id="CSXKb2e_C_K2BSgl5yH9-69" value="&lt;font&gt;config.cache&lt;/font&gt;" style="rounded=0;whiteSpace=wrap;html=1;strokeWidth=1;fillColor=#7FBBB3;strokeColor=#7FBBB3;fontColor=#5C6A72;fillOpacity=50;fontFamily=LXGW WenKai Mono;fontSize=17;align=center;verticalAlign=middle;" parent="1" vertex="1">
          <mxGeometry x="880" y="1370" width="140" height="30" as="geometry" />
        </mxCell>
        <mxCell id="CSXKb2e_C_K2BSgl5yH9-70" value="&lt;font&gt;config.h.in&lt;/font&gt;" style="rounded=0;whiteSpace=wrap;html=1;strokeWidth=1;fillColor=none;strokeColor=#5C6A72;fontColor=#5C6A72;fillOpacity=50;fontFamily=LXGW WenKai Mono;fontSize=17;align=center;verticalAlign=middle;" parent="1" vertex="1">
          <mxGeometry x="1080" y="1160" width="140" height="30" as="geometry" />
        </mxCell>
        <mxCell id="CSXKb2e_C_K2BSgl5yH9-71" value="&lt;font style=&quot;line-height: 100%;&quot;&gt;src/Makefile.in&lt;/font&gt;" style="rounded=0;whiteSpace=wrap;html=1;strokeWidth=1;fillColor=none;strokeColor=#5C6A72;fontColor=#5C6A72;fillOpacity=50;fontFamily=LXGW WenKai Mono;fontSize=17;align=center;verticalAlign=middle;" parent="1" vertex="1">
          <mxGeometry x="1480" y="1160" width="140" height="30" as="geometry" />
        </mxCell>
        <mxCell id="CSXKb2e_C_K2BSgl5yH9-72" value="&lt;font&gt;Makefile.in&lt;/font&gt;" style="rounded=0;whiteSpace=wrap;html=1;strokeWidth=1;fillColor=none;strokeColor=#5C6A72;fontColor=#5C6A72;fillOpacity=50;fontFamily=LXGW WenKai Mono;fontSize=17;align=center;verticalAlign=middle;" parent="1" vertex="1">
          <mxGeometry x="1280" y="1160" width="140" height="30" as="geometry" />
        </mxCell>
        <mxCell id="CSXKb2e_C_K2BSgl5yH9-73" value="&lt;font&gt;config.h&lt;/font&gt;" style="rounded=0;whiteSpace=wrap;html=1;strokeWidth=1;fillColor=none;strokeColor=#5C6A72;fontColor=#5C6A72;fillOpacity=50;fontFamily=LXGW WenKai Mono;fontSize=17;align=center;verticalAlign=middle;" parent="1" vertex="1">
          <mxGeometry x="1080" y="1370" width="140" height="30" as="geometry" />
        </mxCell>
        <mxCell id="CSXKb2e_C_K2BSgl5yH9-74" value="&lt;font&gt;src/Makefile&lt;/font&gt;" style="rounded=0;whiteSpace=wrap;html=1;strokeWidth=1;fillColor=none;strokeColor=#5C6A72;fontColor=#5C6A72;fillOpacity=50;fontFamily=LXGW WenKai Mono;fontSize=17;align=center;verticalAlign=middle;" parent="1" vertex="1">
          <mxGeometry x="1480" y="1370" width="140" height="30" as="geometry" />
        </mxCell>
        <mxCell id="CSXKb2e_C_K2BSgl5yH9-75" value="&lt;font&gt;Makefile&lt;/font&gt;" style="rounded=0;whiteSpace=wrap;html=1;strokeWidth=1;fillColor=none;strokeColor=#5C6A72;fontColor=#5C6A72;fillOpacity=50;fontFamily=LXGW WenKai Mono;fontSize=17;align=center;verticalAlign=middle;" parent="1" vertex="1">
          <mxGeometry x="1280" y="1370" width="140" height="30" as="geometry" />
        </mxCell>
        <mxCell id="CSXKb2e_C_K2BSgl5yH9-76" style="edgeStyle=orthogonalEdgeStyle;rounded=0;orthogonalLoop=1;jettySize=auto;html=1;exitX=0.25;exitY=1;exitDx=0;exitDy=0;strokeWidth=1;strokeColor=#E67E80;fontFamily=LXGW WenKai Mono;fontSize=17;fontColor=#5C6A72;align=center;verticalAlign=middle;endArrow=blockThin;endFill=1;entryX=0.25;entryY=0;entryDx=0;entryDy=0;" parent="1" source="CSXKb2e_C_K2BSgl5yH9-58" target="CSXKb2e_C_K2BSgl5yH9-69" edge="1">
          <mxGeometry relative="1" as="geometry">
            <Array as="points" />
            <mxPoint x="945" y="1339.9400000000003" as="sourcePoint" />
            <mxPoint x="940" y="1440" as="targetPoint" />
          </mxGeometry>
        </mxCell>
        <mxCell id="CSXKb2e_C_K2BSgl5yH9-77" value="&lt;font&gt;configure.ac&lt;/font&gt;" style="rounded=0;whiteSpace=wrap;html=1;strokeWidth=1;fillColor=none;strokeColor=#5C6A72;fontColor=#5C6A72;fillOpacity=50;fontFamily=LXGW WenKai Mono;fontSize=17;align=center;verticalAlign=middle;" parent="1" vertex="1">
          <mxGeometry x="880" y="1520" width="140" height="30" as="geometry" />
        </mxCell>
        <mxCell id="CSXKb2e_C_K2BSgl5yH9-78" value="&lt;font&gt;autoconf&lt;/font&gt;" style="rounded=0;whiteSpace=wrap;html=1;strokeWidth=1;fillColor=#E67E80;strokeColor=#E67E80;perimeterSpacing=0;glass=0;shadow=0;fillStyle=solid;gradientColor=none;fillOpacity=50;fontFamily=LXGW WenKai Mono;fontSize=17;fontColor=#5C6A72;align=center;verticalAlign=middle;" parent="1" vertex="1">
          <mxGeometry x="880" y="1610" width="140" height="30" as="geometry" />
        </mxCell>
        <mxCell id="CSXKb2e_C_K2BSgl5yH9-79" value="" style="endArrow=blockThin;html=1;rounded=0;entryX=0.5;entryY=0;entryDx=0;entryDy=0;strokeWidth=1;strokeColor=#5C6A72;exitX=0.5;exitY=1;exitDx=0;exitDy=0;fontFamily=LXGW WenKai Mono;fontSize=17;fontColor=#5C6A72;align=center;verticalAlign=middle;endFill=1;" parent="1" source="CSXKb2e_C_K2BSgl5yH9-77" target="CSXKb2e_C_K2BSgl5yH9-78" edge="1">
          <mxGeometry width="50" height="50" relative="1" as="geometry">
            <mxPoint x="1050" y="1650" as="sourcePoint" />
            <mxPoint x="890" y="1780" as="targetPoint" />
            <Array as="points" />
          </mxGeometry>
        </mxCell>
        <mxCell id="CSXKb2e_C_K2BSgl5yH9-80" style="edgeStyle=orthogonalEdgeStyle;rounded=0;orthogonalLoop=1;jettySize=auto;html=1;entryX=0.5;entryY=0;entryDx=0;entryDy=0;strokeWidth=1;strokeColor=#E67E80;exitX=0.5;exitY=1;exitDx=0;exitDy=0;fontFamily=LXGW WenKai Mono;fontSize=17;fontColor=#5C6A72;align=center;verticalAlign=middle;endArrow=blockThin;endFill=1;" parent="1" source="CSXKb2e_C_K2BSgl5yH9-78" target="CSXKb2e_C_K2BSgl5yH9-81" edge="1">
          <mxGeometry relative="1" as="geometry">
            <mxPoint x="1100" y="1740" as="sourcePoint" />
            <mxPoint x="930" y="1750" as="targetPoint" />
            <Array as="points" />
          </mxGeometry>
        </mxCell>
        <mxCell id="CSXKb2e_C_K2BSgl5yH9-81" value="&lt;font&gt;configure&lt;/font&gt;" style="rounded=0;whiteSpace=wrap;html=1;strokeWidth=1;fillColor=#A7C080;strokeColor=#A7C080;perimeterSpacing=0;glass=0;shadow=0;fillStyle=solid;gradientColor=none;fillOpacity=50;fontFamily=LXGW WenKai Mono;fontSize=17;fontColor=#5C6A72;align=center;verticalAlign=middle;" parent="1" vertex="1">
          <mxGeometry x="880" y="1700" width="140" height="30" as="geometry" />
        </mxCell>
        <mxCell id="CSXKb2e_C_K2BSgl5yH9-82" value="&lt;font&gt;configure&lt;/font&gt;" style="rounded=0;whiteSpace=wrap;html=1;strokeWidth=1;fillColor=#A7C080;strokeColor=#A7C080;perimeterSpacing=0;glass=0;shadow=0;fillStyle=solid;gradientColor=none;fillOpacity=50;fontFamily=LXGW WenKai Mono;fontSize=17;fontColor=#5C6A72;align=center;verticalAlign=middle;" parent="1" vertex="1">
          <mxGeometry x="880" y="2110" width="140" height="30" as="geometry" />
        </mxCell>
        <mxCell id="CSXKb2e_C_K2BSgl5yH9-83" style="edgeStyle=orthogonalEdgeStyle;rounded=0;orthogonalLoop=1;jettySize=auto;html=1;entryX=1;entryY=0.5;entryDx=0;entryDy=0;strokeWidth=1;strokeColor=#5C6A72;fontFamily=LXGW WenKai Mono;fontSize=17;fontColor=#5C6A72;align=center;verticalAlign=middle;endArrow=blockThin;endFill=1;exitX=0;exitY=0.5;exitDx=0;exitDy=0;" parent="1" source="CSXKb2e_C_K2BSgl5yH9-85" target="CSXKb2e_C_K2BSgl5yH9-87" edge="1">
          <mxGeometry relative="1" as="geometry" />
        </mxCell>
        <mxCell id="CSXKb2e_C_K2BSgl5yH9-85" value="&lt;font&gt;configure.ac&lt;/font&gt;" style="rounded=0;whiteSpace=wrap;html=1;strokeWidth=1;fillColor=none;strokeColor=#5C6A72;fontColor=#5C6A72;fillOpacity=50;fontFamily=LXGW WenKai Mono;fontSize=17;align=center;verticalAlign=middle;" parent="1" vertex="1">
          <mxGeometry x="1080" y="1840" width="140" height="30" as="geometry" />
        </mxCell>
        <mxCell id="CSXKb2e_C_K2BSgl5yH9-86" style="edgeStyle=orthogonalEdgeStyle;rounded=0;orthogonalLoop=1;jettySize=auto;html=1;entryX=0.5;entryY=0;entryDx=0;entryDy=0;strokeWidth=1;strokeColor=#E67E80;fontFamily=LXGW WenKai Mono;fontSize=17;fontColor=#5C6A72;align=center;verticalAlign=middle;endArrow=blockThin;endFill=1;" parent="1" source="CSXKb2e_C_K2BSgl5yH9-87" target="CSXKb2e_C_K2BSgl5yH9-91" edge="1">
          <mxGeometry relative="1" as="geometry" />
        </mxCell>
        <mxCell id="CSXKb2e_C_K2BSgl5yH9-87" value="&lt;font&gt;aclocal&lt;/font&gt;" style="rounded=0;whiteSpace=wrap;html=1;strokeWidth=1;fillColor=#E67E80;strokeColor=#E67E80;perimeterSpacing=0;glass=0;shadow=0;fillStyle=solid;gradientColor=none;fillOpacity=50;fontFamily=LXGW WenKai Mono;fontSize=17;fontColor=#5C6A72;align=center;verticalAlign=middle;" parent="1" vertex="1">
          <mxGeometry x="880" y="1840" width="140" height="30" as="geometry" />
        </mxCell>
        <mxCell id="CSXKb2e_C_K2BSgl5yH9-88" value="&lt;font&gt;autoconf&lt;/font&gt;" style="rounded=0;whiteSpace=wrap;html=1;strokeWidth=1;fillColor=#E67E80;strokeColor=#E67E80;perimeterSpacing=0;glass=0;shadow=0;fillStyle=solid;gradientColor=none;fillOpacity=50;fontFamily=LXGW WenKai Mono;fontSize=17;fontColor=#5C6A72;align=center;verticalAlign=middle;" parent="1" vertex="1">
          <mxGeometry x="880" y="2020" width="140" height="30" as="geometry" />
        </mxCell>
        <mxCell id="CSXKb2e_C_K2BSgl5yH9-91" value="&lt;font&gt;aclocal.m4&lt;/font&gt;" style="rounded=0;whiteSpace=wrap;html=1;strokeWidth=1;fillColor=#7FBBB3;strokeColor=#7FBBB3;fontColor=#5C6A72;fillOpacity=50;fontFamily=LXGW WenKai Mono;fontSize=17;align=center;verticalAlign=middle;" parent="1" vertex="1">
          <mxGeometry x="880" y="1930" width="140" height="30" as="geometry" />
        </mxCell>
        <mxCell id="CSXKb2e_C_K2BSgl5yH9-92" value="" style="endArrow=blockThin;html=1;rounded=0;entryX=0.75;entryY=0;entryDx=0;entryDy=0;strokeWidth=1;strokeColor=#5C6A72;exitX=0.25;exitY=1;exitDx=0;exitDy=0;fontFamily=LXGW WenKai Mono;fontSize=17;fontColor=#5C6A72;align=center;verticalAlign=middle;endFill=1;" parent="1" source="CSXKb2e_C_K2BSgl5yH9-85" target="CSXKb2e_C_K2BSgl5yH9-88" edge="1">
          <mxGeometry width="50" height="50" relative="1" as="geometry">
            <mxPoint x="1130" y="2180" as="sourcePoint" />
            <mxPoint x="970" y="2310" as="targetPoint" />
            <Array as="points">
              <mxPoint x="1115" y="1990" />
              <mxPoint x="985" y="1990" />
            </Array>
          </mxGeometry>
        </mxCell>
        <mxCell id="CSXKb2e_C_K2BSgl5yH9-94" style="edgeStyle=orthogonalEdgeStyle;rounded=0;orthogonalLoop=1;jettySize=auto;html=1;entryX=0.5;entryY=0;entryDx=0;entryDy=0;strokeWidth=1;strokeColor=#E67E80;exitX=0.5;exitY=1;exitDx=0;exitDy=0;fontFamily=LXGW WenKai Mono;fontSize=17;fontColor=#5C6A72;align=center;verticalAlign=middle;endArrow=blockThin;endFill=1;" parent="1" source="CSXKb2e_C_K2BSgl5yH9-88" target="CSXKb2e_C_K2BSgl5yH9-82" edge="1">
          <mxGeometry relative="1" as="geometry">
            <mxPoint x="1180" y="2270" as="sourcePoint" />
            <mxPoint x="1180" y="2310" as="targetPoint" />
            <Array as="points">
              <mxPoint x="950" y="2100" />
              <mxPoint x="950" y="2100" />
            </Array>
          </mxGeometry>
        </mxCell>
        <mxCell id="CSXKb2e_C_K2BSgl5yH9-99" value="" style="endArrow=blockThin;html=1;rounded=0;exitX=0.5;exitY=1;exitDx=0;exitDy=0;entryX=0.5;entryY=0;entryDx=0;entryDy=0;strokeColor=#7FBBB3;fontColor=#5C6A72;fontFamily=LXGW WenKai Mono;fontSize=17;align=center;verticalAlign=middle;endFill=1;" parent="1" source="CSXKb2e_C_K2BSgl5yH9-91" target="CSXKb2e_C_K2BSgl5yH9-88" edge="1">
          <mxGeometry width="50" height="50" relative="1" as="geometry">
            <mxPoint x="1080" y="2160" as="sourcePoint" />
            <mxPoint x="1130" y="2110" as="targetPoint" />
          </mxGeometry>
        </mxCell>
        <mxCell id="CSXKb2e_C_K2BSgl5yH9-100" style="edgeStyle=orthogonalEdgeStyle;rounded=0;orthogonalLoop=1;jettySize=auto;html=1;entryX=0;entryY=0.5;entryDx=0;entryDy=0;strokeWidth=1;strokeColor=#E67E80;fontFamily=LXGW WenKai Mono;fontSize=17;fontColor=#5C6A72;align=center;verticalAlign=middle;endArrow=blockThin;endFill=1;" parent="1" source="CSXKb2e_C_K2BSgl5yH9-101" target="CSXKb2e_C_K2BSgl5yH9-104" edge="1">
          <mxGeometry relative="1" as="geometry" />
        </mxCell>
        <mxCell id="CSXKb2e_C_K2BSgl5yH9-101" value="&lt;font&gt;./configure&lt;/font&gt;" style="rounded=0;whiteSpace=wrap;html=1;strokeWidth=1;fillColor=#E67E80;strokeColor=#E67E80;perimeterSpacing=0;glass=0;shadow=0;fillStyle=solid;gradientColor=none;fillOpacity=50;fontFamily=LXGW WenKai Mono;fontSize=17;fontColor=#5C6A72;align=center;verticalAlign=middle;" parent="1" vertex="1">
          <mxGeometry x="880" y="2510" width="140" height="30" as="geometry" />
        </mxCell>
        <mxCell id="CSXKb2e_C_K2BSgl5yH9-103" style="edgeStyle=orthogonalEdgeStyle;rounded=0;orthogonalLoop=1;jettySize=auto;html=1;exitX=0.5;exitY=1;exitDx=0;exitDy=0;entryX=0.5;entryY=0;entryDx=0;entryDy=0;strokeWidth=1;strokeColor=#E67E80;fontFamily=LXGW WenKai Mono;fontSize=17;fontColor=#5C6A72;align=center;verticalAlign=middle;endArrow=blockThin;endFill=1;" parent="1" source="CSXKb2e_C_K2BSgl5yH9-104" target="CSXKb2e_C_K2BSgl5yH9-126" edge="1">
          <mxGeometry relative="1" as="geometry">
            <Array as="points" />
            <mxPoint x="1130" y="2789.9700000000003" as="targetPoint" />
          </mxGeometry>
        </mxCell>
        <mxCell id="CSXKb2e_C_K2BSgl5yH9-104" value="&lt;font&gt;config.status&lt;/font&gt;" style="rounded=0;whiteSpace=wrap;html=1;strokeWidth=1;fillColor=#E67E80;strokeColor=#E67E80;fillOpacity=50;fontFamily=LXGW WenKai Mono;fontSize=17;fontColor=#5C6A72;align=center;verticalAlign=middle;" parent="1" vertex="1">
          <mxGeometry x="1080" y="2510" width="140" height="30" as="geometry" />
        </mxCell>
        <mxCell id="CSXKb2e_C_K2BSgl5yH9-105" style="edgeStyle=orthogonalEdgeStyle;rounded=0;orthogonalLoop=1;jettySize=auto;html=1;strokeWidth=1;strokeColor=#5C6A72;fontFamily=LXGW WenKai Mono;fontSize=17;exitX=0.5;exitY=1;exitDx=0;exitDy=0;fontColor=#5C6A72;align=center;verticalAlign=middle;endArrow=blockThin;endFill=1;entryX=0.5;entryY=0;entryDx=0;entryDy=0;" parent="1" source="CSXKb2e_C_K2BSgl5yH9-124" target="CSXKb2e_C_K2BSgl5yH9-104" edge="1">
          <mxGeometry relative="1" as="geometry">
            <Array as="points">
              <mxPoint x="1150" y="2470" />
              <mxPoint x="1150" y="2470" />
            </Array>
            <mxPoint x="1130" y="2740" as="sourcePoint" />
            <mxPoint x="1360" y="2500" as="targetPoint" />
          </mxGeometry>
        </mxCell>
        <mxCell id="CSXKb2e_C_K2BSgl5yH9-110" style="edgeStyle=orthogonalEdgeStyle;rounded=0;orthogonalLoop=1;jettySize=auto;html=1;entryX=0.5;entryY=0;entryDx=0;entryDy=0;strokeWidth=1;strokeColor=#5C6A72;fontFamily=LXGW WenKai Mono;fontSize=17;fontColor=#5C6A72;align=center;verticalAlign=middle;endArrow=blockThin;endFill=1;" parent="1" source="CSXKb2e_C_K2BSgl5yH9-111" target="CSXKb2e_C_K2BSgl5yH9-118" edge="1">
          <mxGeometry relative="1" as="geometry" />
        </mxCell>
        <mxCell id="CSXKb2e_C_K2BSgl5yH9-111" value="&lt;font&gt;configure.ac&lt;/font&gt;" style="rounded=0;whiteSpace=wrap;html=1;strokeWidth=1;fillColor=none;strokeColor=#5C6A72;fontColor=#5C6A72;fillOpacity=50;fontFamily=LXGW WenKai Mono;fontSize=17;align=center;verticalAlign=middle;" parent="1" vertex="1">
          <mxGeometry x="1080" y="2240" width="140" height="30" as="geometry" />
        </mxCell>
        <mxCell id="CSXKb2e_C_K2BSgl5yH9-116" value="&lt;font&gt;autoconf&lt;/font&gt;" style="rounded=0;whiteSpace=wrap;html=1;strokeWidth=1;fillColor=#E67E80;strokeColor=#E67E80;perimeterSpacing=0;glass=0;shadow=0;fillStyle=solid;gradientColor=none;fillOpacity=50;fontFamily=LXGW WenKai Mono;fontSize=17;fontColor=#5C6A72;align=center;verticalAlign=middle;" parent="1" vertex="1">
          <mxGeometry x="880" y="2330" width="140" height="30" as="geometry" />
        </mxCell>
        <mxCell id="CSXKb2e_C_K2BSgl5yH9-117" style="edgeStyle=orthogonalEdgeStyle;rounded=0;orthogonalLoop=1;jettySize=auto;html=1;entryX=0.5;entryY=0;entryDx=0;entryDy=0;strokeWidth=1;strokeColor=#E67E80;fontFamily=LXGW WenKai Mono;fontSize=17;fontColor=#5C6A72;align=center;verticalAlign=middle;endArrow=blockThin;endFill=1;" parent="1" source="CSXKb2e_C_K2BSgl5yH9-118" target="CSXKb2e_C_K2BSgl5yH9-124" edge="1">
          <mxGeometry relative="1" as="geometry">
            <mxPoint x="1150" y="2700" as="targetPoint" />
          </mxGeometry>
        </mxCell>
        <mxCell id="CSXKb2e_C_K2BSgl5yH9-118" value="&lt;font&gt;autoheader&lt;/font&gt;" style="rounded=0;whiteSpace=wrap;html=1;strokeWidth=1;fillColor=#E67E80;strokeColor=#E67E80;perimeterSpacing=0;glass=0;shadow=0;fillStyle=solid;gradientColor=none;fillOpacity=50;fontFamily=LXGW WenKai Mono;fontSize=17;fontColor=#5C6A72;align=center;verticalAlign=middle;" parent="1" vertex="1">
          <mxGeometry x="1080" y="2330" width="140" height="30" as="geometry" />
        </mxCell>
        <mxCell id="CSXKb2e_C_K2BSgl5yH9-122" value="" style="endArrow=blockThin;html=1;rounded=0;entryX=0.5;entryY=0;entryDx=0;entryDy=0;strokeWidth=1;strokeColor=#5C6A72;fontFamily=LXGW WenKai Mono;fontSize=17;fontColor=#5C6A72;align=center;verticalAlign=middle;endFill=1;exitX=0;exitY=0.5;exitDx=0;exitDy=0;" parent="1" source="CSXKb2e_C_K2BSgl5yH9-111" target="CSXKb2e_C_K2BSgl5yH9-116" edge="1">
          <mxGeometry width="50" height="50" relative="1" as="geometry">
            <mxPoint x="1020" y="2270" as="sourcePoint" />
            <mxPoint x="970" y="2710" as="targetPoint" />
            <Array as="points">
              <mxPoint x="950" y="2255" />
            </Array>
          </mxGeometry>
        </mxCell>
        <mxCell id="CSXKb2e_C_K2BSgl5yH9-124" value="&lt;font&gt;config.h.in&lt;/font&gt;" style="rounded=0;whiteSpace=wrap;html=1;strokeWidth=1;fillColor=none;strokeColor=#5C6A72;fontColor=#5C6A72;fillOpacity=50;fontFamily=LXGW WenKai Mono;fontSize=17;align=center;verticalAlign=middle;" parent="1" vertex="1">
          <mxGeometry x="1080" y="2420" width="140" height="30" as="geometry" />
        </mxCell>
        <mxCell id="CSXKb2e_C_K2BSgl5yH9-126" value="&lt;font&gt;config.h&lt;/font&gt;" style="rounded=0;whiteSpace=wrap;html=1;strokeWidth=1;fillColor=#A7C080;strokeColor=#A7C080;fontColor=#5C6A72;fillOpacity=50;fontFamily=LXGW WenKai Mono;fontSize=17;align=center;verticalAlign=middle;" parent="1" vertex="1">
          <mxGeometry x="1080" y="2600" width="140" height="30" as="geometry" />
        </mxCell>
        <mxCell id="CSXKb2e_C_K2BSgl5yH9-129" style="edgeStyle=orthogonalEdgeStyle;rounded=0;orthogonalLoop=1;jettySize=auto;html=1;entryX=0.5;entryY=0;entryDx=0;entryDy=0;strokeWidth=1;strokeColor=#E67E80;exitX=0.5;exitY=1;exitDx=0;exitDy=0;fontFamily=LXGW WenKai Mono;fontSize=17;fontColor=#5C6A72;align=center;verticalAlign=middle;endArrow=blockThin;endFill=1;" parent="1" source="CSXKb2e_C_K2BSgl5yH9-116" target="CSXKb2e_C_K2BSgl5yH9-101" edge="1">
          <mxGeometry relative="1" as="geometry">
            <mxPoint x="1180" y="2670" as="sourcePoint" />
            <mxPoint x="1180" y="2710" as="targetPoint" />
            <Array as="points">
              <mxPoint x="950" y="2500" />
              <mxPoint x="950" y="2500" />
            </Array>
          </mxGeometry>
        </mxCell>
      </root>
    </mxGraphModel>
  </diagram>
</mxfile>
